<mxfile host="" modified="2021-01-26T16:20:07.685Z" agent="5.0 (Windows NT 6.2; Win64; x64) AppleWebKit/537.36 (KHTML, like Gecko) Chrome/84.0.4147.105 Safari/537.36" etag="q21KFE_khwcgbs9UdffU" version="13.7.9" type="embed" pages="7"><diagram id="oBqMUZdXp7EAC5SQ2_Kd" name="Pesquisa"><mxGraphModel dx="454" dy="210" grid="1" gridSize="10" guides="1" tooltips="1" connect="1" arrows="1" fold="1" page="1" pageScale="1" pageWidth="827" pageHeight="1169" math="0" shadow="0"><root><mxCell id="0"/><mxCell id="1" parent="0"/><mxCell id="7W8X7wgBB29pZyd62T7E-1" value="Utilizador" style="shape=umlActor;verticalLabelPosition=bottom;verticalAlign=top;html=1;outlineConnect=0;" parent="1" vertex="1"><mxGeometry x="40" y="80" width="40" height="70" as="geometry"/></mxCell><mxCell id="7W8X7wgBB29pZyd62T7E-2" value=": Interface" style="rounded=0;whiteSpace=wrap;html=1;" parent="1" vertex="1"><mxGeometry x="160" y="80" width="120" height="40" as="geometry"/></mxCell><mxCell id="7W8X7wgBB29pZyd62T7E-3" value=": Sistema Informático" style="rounded=0;whiteSpace=wrap;html=1;" parent="1" vertex="1"><mxGeometry x="360" y="80" width="120" height="40" as="geometry"/></mxCell><mxCell id="7W8X7wgBB29pZyd62T7E-4" value=": Base de Dados" style="rounded=0;whiteSpace=wrap;html=1;" parent="1" vertex="1"><mxGeometry x="560" y="80" width="120" height="40" as="geometry"/></mxCell><mxCell id="7W8X7wgBB29pZyd62T7E-5" value="" style="endArrow=none;dashed=1;html=1;strokeWidth=2;fillColor=#dae8fc;strokeColor=#3333FF;" parent="1" edge="1"><mxGeometry width="50" height="50" relative="1" as="geometry"><mxPoint x="60" y="800" as="sourcePoint"/><mxPoint x="59.5" y="170" as="targetPoint"/></mxGeometry></mxCell><mxCell id="7W8X7wgBB29pZyd62T7E-6" value="" style="endArrow=none;dashed=1;html=1;strokeWidth=2;fillColor=#dae8fc;strokeColor=#3333FF;" parent="1" source="7W8X7wgBB29pZyd62T7E-15" edge="1"><mxGeometry width="50" height="50" relative="1" as="geometry"><mxPoint x="220" y="842" as="sourcePoint"/><mxPoint x="220" y="160" as="targetPoint"/></mxGeometry></mxCell><mxCell id="7W8X7wgBB29pZyd62T7E-7" value="" style="endArrow=none;dashed=1;html=1;strokeWidth=2;fillColor=#dae8fc;strokeColor=#3333FF;" parent="1" source="7W8X7wgBB29pZyd62T7E-13" edge="1"><mxGeometry width="50" height="50" relative="1" as="geometry"><mxPoint x="419.5" y="872" as="sourcePoint"/><mxPoint x="419.5" y="190" as="targetPoint"/></mxGeometry></mxCell><mxCell id="7W8X7wgBB29pZyd62T7E-8" value="" style="endArrow=none;dashed=1;html=1;strokeWidth=2;fillColor=#dae8fc;strokeColor=#3333FF;" parent="1" source="7W8X7wgBB29pZyd62T7E-19" edge="1"><mxGeometry width="50" height="50" relative="1" as="geometry"><mxPoint x="619.5" y="842" as="sourcePoint"/><mxPoint x="619.5" y="160" as="targetPoint"/></mxGeometry></mxCell><mxCell id="7W8X7wgBB29pZyd62T7E-9" value="«create»" style="endArrow=classic;html=1;strokeWidth=1;" parent="1" edge="1"><mxGeometry width="50" height="50" relative="1" as="geometry"><mxPoint x="60" y="200" as="sourcePoint"/><mxPoint x="220" y="200" as="targetPoint"/></mxGeometry></mxCell><mxCell id="7W8X7wgBB29pZyd62T7E-10" value="«create»" style="endArrow=classic;html=1;strokeWidth=1;exitX=1;exitY=0;exitDx=0;exitDy=0;" parent="1" source="7W8X7wgBB29pZyd62T7E-17" edge="1"><mxGeometry width="50" height="50" relative="1" as="geometry"><mxPoint x="440" y="439" as="sourcePoint"/><mxPoint x="620" y="440" as="targetPoint"/></mxGeometry></mxCell><mxCell id="7W8X7wgBB29pZyd62T7E-11" value="«create»" style="endArrow=classic;html=1;strokeWidth=1;" parent="1" edge="1"><mxGeometry width="50" height="50" relative="1" as="geometry"><mxPoint x="240" y="230" as="sourcePoint"/><mxPoint x="420" y="230" as="targetPoint"/></mxGeometry></mxCell><mxCell id="7W8X7wgBB29pZyd62T7E-12" value="" style="rounded=0;whiteSpace=wrap;html=1;" parent="1" vertex="1"><mxGeometry x="200" y="230" width="40" height="170" as="geometry"/></mxCell><mxCell id="7W8X7wgBB29pZyd62T7E-13" value="" style="rounded=0;whiteSpace=wrap;html=1;" parent="1" vertex="1"><mxGeometry x="400" y="250" width="40" height="20" as="geometry"/></mxCell><mxCell id="7W8X7wgBB29pZyd62T7E-14" value="" style="endArrow=none;dashed=1;html=1;strokeWidth=2;fillColor=#dae8fc;strokeColor=#3333FF;" parent="1" source="7W8X7wgBB29pZyd62T7E-17" target="7W8X7wgBB29pZyd62T7E-13" edge="1"><mxGeometry width="50" height="50" relative="1" as="geometry"><mxPoint x="419.5" y="842" as="sourcePoint"/><mxPoint x="419.5" y="160" as="targetPoint"/></mxGeometry></mxCell><mxCell id="7W8X7wgBB29pZyd62T7E-15" value="" style="rounded=0;whiteSpace=wrap;html=1;" parent="1" vertex="1"><mxGeometry x="200" y="440" width="40" height="280" as="geometry"/></mxCell><mxCell id="7W8X7wgBB29pZyd62T7E-16" value="" style="endArrow=none;dashed=1;html=1;strokeWidth=2;fillColor=#dae8fc;strokeColor=#3333FF;" parent="1" target="7W8X7wgBB29pZyd62T7E-15" edge="1"><mxGeometry width="50" height="50" relative="1" as="geometry"><mxPoint x="220" y="800" as="sourcePoint"/><mxPoint x="220" y="160" as="targetPoint"/></mxGeometry></mxCell><mxCell id="7W8X7wgBB29pZyd62T7E-17" value="" style="rounded=0;whiteSpace=wrap;html=1;" parent="1" vertex="1"><mxGeometry x="400" y="440" width="40" height="120" as="geometry"/></mxCell><mxCell id="7W8X7wgBB29pZyd62T7E-18" value="" style="endArrow=none;dashed=1;html=1;strokeWidth=2;fillColor=#dae8fc;strokeColor=#3333FF;" parent="1" target="7W8X7wgBB29pZyd62T7E-17" edge="1"><mxGeometry width="50" height="50" relative="1" as="geometry"><mxPoint x="420" y="800" as="sourcePoint"/><mxPoint x="419.90774907749073" y="400" as="targetPoint"/></mxGeometry></mxCell><mxCell id="7W8X7wgBB29pZyd62T7E-19" value="" style="rounded=0;whiteSpace=wrap;html=1;" parent="1" vertex="1"><mxGeometry x="600" y="460" width="40" height="100" as="geometry"/></mxCell><mxCell id="7W8X7wgBB29pZyd62T7E-20" value="" style="endArrow=none;dashed=1;html=1;strokeWidth=2;fillColor=#dae8fc;strokeColor=#3333FF;" parent="1" target="7W8X7wgBB29pZyd62T7E-19" edge="1"><mxGeometry width="50" height="50" relative="1" as="geometry"><mxPoint x="620" y="800" as="sourcePoint"/><mxPoint x="619.5" y="160" as="targetPoint"/></mxGeometry></mxCell><mxCell id="7W8X7wgBB29pZyd62T7E-21" value="" style="endArrow=open;dashed=1;html=1;strokeColor=#000000;strokeWidth=1;endFill=0;endSize=8;startSize=8;exitX=0;exitY=1;exitDx=0;exitDy=0;" parent="1" edge="1"><mxGeometry width="50" height="50" relative="1" as="geometry"><mxPoint x="200" y="400" as="sourcePoint"/><mxPoint x="60" y="400" as="targetPoint"/></mxGeometry></mxCell><mxCell id="7W8X7wgBB29pZyd62T7E-22" value="" style="endArrow=open;dashed=1;html=1;strokeColor=#000000;strokeWidth=1;endFill=0;endSize=8;startSize=8;exitX=0;exitY=1;exitDx=0;exitDy=0;" parent="1" edge="1"><mxGeometry width="50" height="50" relative="1" as="geometry"><mxPoint x="200" y="720" as="sourcePoint"/><mxPoint x="60" y="720" as="targetPoint"/></mxGeometry></mxCell><mxCell id="7W8X7wgBB29pZyd62T7E-23" value="" style="endArrow=open;dashed=1;html=1;strokeColor=#000000;strokeWidth=1;endFill=0;endSize=8;startSize=8;exitX=0;exitY=1;exitDx=0;exitDy=0;" parent="1" source="7W8X7wgBB29pZyd62T7E-19" edge="1"><mxGeometry width="50" height="50" relative="1" as="geometry"><mxPoint x="580" y="560" as="sourcePoint"/><mxPoint x="440" y="560" as="targetPoint"/></mxGeometry></mxCell><mxCell id="7W8X7wgBB29pZyd62T7E-24" value="" style="endArrow=open;dashed=1;html=1;strokeColor=#000000;strokeWidth=1;endFill=0;endSize=8;startSize=8;exitX=0;exitY=1;exitDx=0;exitDy=0;entryX=1;entryY=0.429;entryDx=0;entryDy=0;entryPerimeter=0;" parent="1" source="7W8X7wgBB29pZyd62T7E-17" target="7W8X7wgBB29pZyd62T7E-15" edge="1"><mxGeometry width="50" height="50" relative="1" as="geometry"><mxPoint x="390" y="559" as="sourcePoint"/><mxPoint x="280" y="620" as="targetPoint"/></mxGeometry></mxCell><mxCell id="7W8X7wgBB29pZyd62T7E-25" value="" style="rounded=0;whiteSpace=wrap;html=1;" parent="1" vertex="1"><mxGeometry x="220" y="280" width="40" height="80" as="geometry"/></mxCell><mxCell id="7W8X7wgBB29pZyd62T7E-26" value="" style="rounded=0;whiteSpace=wrap;html=1;" parent="1" vertex="1"><mxGeometry x="220" y="600" width="40" height="80" as="geometry"/></mxCell><mxCell id="7W8X7wgBB29pZyd62T7E-27" value="iniciaInterfacePesquisa()" style="endArrow=classic;html=1;strokeWidth=1;entryX=0;entryY=0;entryDx=0;entryDy=0;verticalAlign=bottom;" parent="1" edge="1"><mxGeometry width="50" height="50" relative="1" as="geometry"><mxPoint x="60" y="230" as="sourcePoint"/><mxPoint x="200" y="230" as="targetPoint"/></mxGeometry></mxCell><mxCell id="7W8X7wgBB29pZyd62T7E-28" value="solicitaOpções()" style="endArrow=classic;html=1;strokeWidth=1;verticalAlign=bottom;" parent="1" edge="1"><mxGeometry width="50" height="50" relative="1" as="geometry"><mxPoint x="240" y="250" as="sourcePoint"/><mxPoint x="400" y="250" as="targetPoint"/></mxGeometry></mxCell><mxCell id="7W8X7wgBB29pZyd62T7E-29" value="" style="endArrow=open;dashed=1;html=1;strokeColor=#000000;strokeWidth=1;endFill=0;endSize=8;startSize=8;exitX=0;exitY=1;exitDx=0;exitDy=0;entryX=1;entryY=0.429;entryDx=0;entryDy=0;entryPerimeter=0;" parent="1" edge="1"><mxGeometry width="50" height="50" relative="1" as="geometry"><mxPoint x="400" y="270" as="sourcePoint"/><mxPoint x="240" y="270.1199999999999" as="targetPoint"/></mxGeometry></mxCell><mxCell id="7W8X7wgBB29pZyd62T7E-30" value="apresentaOpções()" style="endArrow=classic;html=1;strokeWidth=1;entryX=1;entryY=0.75;entryDx=0;entryDy=0;exitX=1;exitY=0.25;exitDx=0;exitDy=0;align=center;verticalAlign=top;" parent="1" source="7W8X7wgBB29pZyd62T7E-25" target="7W8X7wgBB29pZyd62T7E-25" edge="1"><mxGeometry x="0.014" y="-69" width="50" height="50" relative="1" as="geometry"><mxPoint x="260" y="283" as="sourcePoint"/><mxPoint x="260" y="360" as="targetPoint"/><Array as="points"><mxPoint x="300" y="310"/></Array><mxPoint x="86" y="31" as="offset"/></mxGeometry></mxCell><mxCell id="7W8X7wgBB29pZyd62T7E-31" value="apresentaDados()" style="endArrow=classic;html=1;strokeWidth=1;entryX=1;entryY=0.75;entryDx=0;entryDy=0;exitX=1;exitY=0.25;exitDx=0;exitDy=0;" parent="1" edge="1"><mxGeometry x="-0.0961" y="41" width="50" height="50" relative="1" as="geometry"><mxPoint x="260" y="620" as="sourcePoint"/><mxPoint x="260" y="660" as="targetPoint"/><Array as="points"><mxPoint x="300" y="630"/></Array><mxPoint x="15" y="-43" as="offset"/></mxGeometry></mxCell><mxCell id="7W8X7wgBB29pZyd62T7E-32" value="seleccionaOpção()" style="endArrow=classic;html=1;strokeWidth=1;entryX=0;entryY=0;entryDx=0;entryDy=0;" parent="1" edge="1"><mxGeometry width="50" height="50" relative="1" as="geometry"><mxPoint x="60" y="440" as="sourcePoint"/><mxPoint x="200" y="440" as="targetPoint"/></mxGeometry></mxCell><mxCell id="7W8X7wgBB29pZyd62T7E-33" value="solicitaDados()" style="endArrow=classic;html=1;strokeWidth=1;" parent="1" edge="1"><mxGeometry width="50" height="50" relative="1" as="geometry"><mxPoint x="240" y="440" as="sourcePoint"/><mxPoint x="400" y="440" as="targetPoint"/></mxGeometry></mxCell><mxCell id="7W8X7wgBB29pZyd62T7E-34" value="consultaDados()" style="endArrow=classic;html=1;strokeWidth=1;" parent="1" edge="1"><mxGeometry width="50" height="50" relative="1" as="geometry"><mxPoint x="440" y="460" as="sourcePoint"/><mxPoint x="600" y="460" as="targetPoint"/></mxGeometry></mxCell><mxCell id="7W8X7wgBB29pZyd62T7E-35" value="Opções do diagrama de use cases Pesquisar Informação" style="shape=card;whiteSpace=wrap;html=1;size=20;fontSize=10;" parent="1" vertex="1"><mxGeometry x="490" y="160" width="60" height="80" as="geometry"/></mxCell><mxCell id="7W8X7wgBB29pZyd62T7E-37" value="" style="endArrow=none;html=1;fontSize=10;" parent="1" edge="1"><mxGeometry width="50" height="50" relative="1" as="geometry"><mxPoint x="440" y="230" as="sourcePoint"/><mxPoint x="491" y="195" as="targetPoint"/></mxGeometry></mxCell><mxCell id="Bi6U2AO4ZwUGLtdEcC3W-1" value="Diagrama de Sequência - Pesquisa" style="rounded=0;whiteSpace=wrap;html=1;fontColor=#0000CC;" parent="1" vertex="1"><mxGeometry x="160" y="20" width="380" height="30" as="geometry"/></mxCell></root></mxGraphModel></diagram><diagram name="Facturação" id="8GWUHBQHbRYF60v8jHFS"><mxGraphModel dx="454" dy="210" grid="1" gridSize="10" guides="1" tooltips="1" connect="1" arrows="1" fold="1" page="1" pageScale="1" pageWidth="827" pageHeight="1169" math="0" shadow="0"><root><mxCell id="0"/><mxCell id="1" parent="0"/><mxCell id="hO8CTnTAe7Eawf2AQecL-2" value="" style="endArrow=none;dashed=1;html=1;strokeWidth=2;fillColor=#dae8fc;strokeColor=#3333FF;" parent="1" edge="1"><mxGeometry width="50" height="50" relative="1" as="geometry"><mxPoint x="60" y="840" as="sourcePoint"/><mxPoint x="59.5" y="180" as="targetPoint"/></mxGeometry></mxCell><mxCell id="hO8CTnTAe7Eawf2AQecL-3" value=": Sistema de Facturação" style="rounded=0;whiteSpace=wrap;html=1;" parent="1" vertex="1"><mxGeometry x="160" y="80" width="120" height="40" as="geometry"/></mxCell><mxCell id="hO8CTnTAe7Eawf2AQecL-4" value="Sistema&lt;br&gt;Informático" style="shape=umlActor;verticalLabelPosition=bottom;verticalAlign=top;html=1;outlineConnect=0;" parent="1" vertex="1"><mxGeometry x="40" y="80" width="40" height="70" as="geometry"/></mxCell><mxCell id="hO8CTnTAe7Eawf2AQecL-5" value=": Recepcionista" style="rounded=0;whiteSpace=wrap;html=1;" parent="1" vertex="1"><mxGeometry x="360" y="80" width="120" height="40" as="geometry"/></mxCell><mxCell id="hO8CTnTAe7Eawf2AQecL-6" value=": Utente" style="rounded=0;whiteSpace=wrap;html=1;" parent="1" vertex="1"><mxGeometry x="560" y="80" width="120" height="40" as="geometry"/></mxCell><mxCell id="hO8CTnTAe7Eawf2AQecL-8" value="" style="endArrow=none;dashed=1;html=1;strokeWidth=2;fillColor=#dae8fc;strokeColor=#3333FF;" parent="1" edge="1"><mxGeometry width="50" height="50" relative="1" as="geometry"><mxPoint x="420" y="840" as="sourcePoint"/><mxPoint x="420" y="160" as="targetPoint"/></mxGeometry></mxCell><mxCell id="hO8CTnTAe7Eawf2AQecL-9" value="" style="endArrow=none;dashed=1;html=1;strokeWidth=2;fillColor=#dae8fc;strokeColor=#3333FF;" parent="1" source="hO8CTnTAe7Eawf2AQecL-22" edge="1"><mxGeometry width="50" height="50" relative="1" as="geometry"><mxPoint x="620" y="1000" as="sourcePoint"/><mxPoint x="620" y="160" as="targetPoint"/></mxGeometry></mxCell><mxCell id="hO8CTnTAe7Eawf2AQecL-10" value="«create»" style="endArrow=classic;html=1;strokeWidth=1;" parent="1" edge="1"><mxGeometry width="50" height="50" relative="1" as="geometry"><mxPoint x="60" y="200" as="sourcePoint"/><mxPoint x="220" y="200" as="targetPoint"/></mxGeometry></mxCell><mxCell id="hO8CTnTAe7Eawf2AQecL-1" value="" style="rounded=0;whiteSpace=wrap;html=1;" parent="1" vertex="1"><mxGeometry x="200" y="220" width="40" height="180" as="geometry"/></mxCell><mxCell id="hO8CTnTAe7Eawf2AQecL-11" value="" style="endArrow=none;dashed=1;html=1;strokeWidth=2;fillColor=#dae8fc;strokeColor=#3333FF;" parent="1" target="hO8CTnTAe7Eawf2AQecL-1" edge="1"><mxGeometry width="50" height="50" relative="1" as="geometry"><mxPoint x="220" y="840" as="sourcePoint"/><mxPoint x="219.5" y="180" as="targetPoint"/></mxGeometry></mxCell><mxCell id="hO8CTnTAe7Eawf2AQecL-12" value="" style="rounded=0;whiteSpace=wrap;html=1;" parent="1" vertex="1"><mxGeometry x="70" y="280" width="40" height="40" as="geometry"/></mxCell><mxCell id="hO8CTnTAe7Eawf2AQecL-14" value="pedirFacturacao()" style="endArrow=classic;html=1;strokeWidth=1;" parent="1" edge="1"><mxGeometry width="50" height="50" relative="1" as="geometry"><mxPoint x="60" y="220" as="sourcePoint"/><mxPoint x="200" y="220" as="targetPoint"/></mxGeometry></mxCell><mxCell id="hO8CTnTAe7Eawf2AQecL-15" value="" style="endArrow=open;dashed=1;html=1;strokeColor=#000000;strokeWidth=1;endFill=0;endSize=8;startSize=8;exitX=0;exitY=1;exitDx=0;exitDy=0;" parent="1" edge="1"><mxGeometry width="50" height="50" relative="1" as="geometry"><mxPoint x="200" y="400" as="sourcePoint"/><mxPoint x="60" y="400" as="targetPoint"/></mxGeometry></mxCell><mxCell id="hO8CTnTAe7Eawf2AQecL-17" value="«create»" style="endArrow=classic;html=1;strokeWidth=1;" parent="1" edge="1"><mxGeometry width="50" height="50" relative="1" as="geometry"><mxPoint x="60" y="440" as="sourcePoint"/><mxPoint x="420" y="440" as="targetPoint"/></mxGeometry></mxCell><mxCell id="hO8CTnTAe7Eawf2AQecL-18" value="" style="rounded=0;whiteSpace=wrap;html=1;" parent="1" vertex="1"><mxGeometry x="400" y="460" width="40" height="80" as="geometry"/></mxCell><mxCell id="hO8CTnTAe7Eawf2AQecL-20" value="emitirNumeroFactura()" style="endArrow=classic;html=1;strokeWidth=1;entryX=0;entryY=0;entryDx=0;entryDy=0;" parent="1" target="hO8CTnTAe7Eawf2AQecL-18" edge="1"><mxGeometry width="50" height="50" relative="1" as="geometry"><mxPoint x="60" y="460" as="sourcePoint"/><mxPoint x="390" y="460" as="targetPoint"/></mxGeometry></mxCell><mxCell id="hO8CTnTAe7Eawf2AQecL-21" value="«create»" style="endArrow=classic;html=1;strokeWidth=1;" parent="1" edge="1"><mxGeometry width="50" height="50" relative="1" as="geometry"><mxPoint x="440" y="460" as="sourcePoint"/><mxPoint x="618" y="460" as="targetPoint"/></mxGeometry></mxCell><mxCell id="hO8CTnTAe7Eawf2AQecL-23" value="apresentarValorApagar()" style="endArrow=classic;html=1;strokeWidth=1;entryX=0;entryY=0;entryDx=0;entryDy=0;" parent="1" target="hO8CTnTAe7Eawf2AQecL-22" edge="1"><mxGeometry width="50" height="50" relative="1" as="geometry"><mxPoint x="440" y="480" as="sourcePoint"/><mxPoint x="600" y="500" as="targetPoint"/></mxGeometry></mxCell><mxCell id="hO8CTnTAe7Eawf2AQecL-24" value="" style="endArrow=open;dashed=1;html=1;strokeColor=#000000;strokeWidth=1;endFill=0;endSize=8;startSize=8;entryX=1;entryY=1;entryDx=0;entryDy=0;exitX=0;exitY=1;exitDx=0;exitDy=0;" parent="1" source="hO8CTnTAe7Eawf2AQecL-22" target="hO8CTnTAe7Eawf2AQecL-18" edge="1"><mxGeometry width="50" height="50" relative="1" as="geometry"><mxPoint x="590" y="560" as="sourcePoint"/><mxPoint x="450" y="560" as="targetPoint"/></mxGeometry></mxCell><mxCell id="hO8CTnTAe7Eawf2AQecL-27" value="* [não recebe número&lt;br&gt;de factura dentro de&amp;nbsp;&lt;br&gt;60 s]" style="endArrow=none;dashed=1;html=1;strokeColor=#000000;strokeWidth=1;entryX=0.5;entryY=0;entryDx=0;entryDy=0;labelBackgroundColor=none;" parent="1" target="hO8CTnTAe7Eawf2AQecL-12" edge="1"><mxGeometry x="1" y="36" width="50" height="50" relative="1" as="geometry"><mxPoint x="60" y="270" as="sourcePoint"/><mxPoint x="410" y="330" as="targetPoint"/><mxPoint x="19" y="14" as="offset"/></mxGeometry></mxCell><mxCell id="hO8CTnTAe7Eawf2AQecL-28" value="" style="endArrow=none;dashed=1;html=1;strokeColor=#000000;strokeWidth=1;entryX=0.5;entryY=1;entryDx=0;entryDy=0;" parent="1" target="hO8CTnTAe7Eawf2AQecL-12" edge="1"><mxGeometry width="50" height="50" relative="1" as="geometry"><mxPoint x="60" y="340" as="sourcePoint"/><mxPoint x="260" y="270" as="targetPoint"/></mxGeometry></mxCell><mxCell id="hO8CTnTAe7Eawf2AQecL-31" value="pedirFacturacao()" style="endArrow=classic;html=1;strokeWidth=1;exitX=1;exitY=0;exitDx=0;exitDy=0;verticalAlign=top;" parent="1" source="hO8CTnTAe7Eawf2AQecL-12" edge="1"><mxGeometry width="50" height="50" relative="1" as="geometry"><mxPoint x="150" y="290" as="sourcePoint"/><mxPoint x="200" y="280" as="targetPoint"/></mxGeometry></mxCell><mxCell id="hO8CTnTAe7Eawf2AQecL-32" value="" style="endArrow=open;dashed=1;html=1;strokeColor=#000000;strokeWidth=1;endFill=0;endSize=8;startSize=8;entryX=1;entryY=1;entryDx=0;entryDy=0;" parent="1" target="hO8CTnTAe7Eawf2AQecL-12" edge="1"><mxGeometry width="50" height="50" relative="1" as="geometry"><mxPoint x="200" y="320" as="sourcePoint"/><mxPoint x="140" y="320" as="targetPoint"/></mxGeometry></mxCell><mxCell id="hO8CTnTAe7Eawf2AQecL-34" value="" style="endArrow=open;dashed=1;html=1;strokeColor=#000000;strokeWidth=1;endFill=0;endSize=8;startSize=8;exitX=0;exitY=1;exitDx=0;exitDy=0;" parent="1" edge="1"><mxGeometry width="50" height="50" relative="1" as="geometry"><mxPoint x="400" y="539" as="sourcePoint"/><mxPoint x="60" y="539" as="targetPoint"/></mxGeometry></mxCell><mxCell id="hO8CTnTAe7Eawf2AQecL-35" value="actualizarEstadoFacturacaoPago()" style="endArrow=classic;html=1;strokeWidth=1;" parent="1" edge="1"><mxGeometry x="0.014" y="-69" width="50" height="50" relative="1" as="geometry"><mxPoint x="60" y="710" as="sourcePoint"/><mxPoint x="60" y="787" as="targetPoint"/><Array as="points"><mxPoint x="100" y="717"/></Array><mxPoint x="86" y="31" as="offset"/></mxGeometry></mxCell><mxCell id="hO8CTnTAe7Eawf2AQecL-39" value="emitirFactura()" style="endArrow=classic;html=1;strokeWidth=1;entryX=0;entryY=0;entryDx=0;entryDy=0;" parent="1" target="hO8CTnTAe7Eawf2AQecL-46" edge="1"><mxGeometry width="50" height="50" relative="1" as="geometry"><mxPoint x="60" y="640" as="sourcePoint"/><mxPoint x="190" y="640" as="targetPoint"/></mxGeometry></mxCell><mxCell id="hO8CTnTAe7Eawf2AQecL-40" value="imprimirFactura()" style="endArrow=classic;html=1;strokeWidth=1;entryX=0;entryY=0;entryDx=0;entryDy=0;exitX=1;exitY=0;exitDx=0;exitDy=0;" parent="1" source="hO8CTnTAe7Eawf2AQecL-46" target="hO8CTnTAe7Eawf2AQecL-38" edge="1"><mxGeometry width="50" height="50" relative="1" as="geometry"><mxPoint x="250" y="640" as="sourcePoint"/><mxPoint x="390" y="640" as="targetPoint"/></mxGeometry></mxCell><mxCell id="hO8CTnTAe7Eawf2AQecL-38" value="" style="rounded=0;whiteSpace=wrap;html=1;" parent="1" vertex="1"><mxGeometry x="400" y="640" width="40" height="40" as="geometry"/></mxCell><mxCell id="hO8CTnTAe7Eawf2AQecL-43" value="" style="endArrow=open;dashed=1;html=1;strokeColor=#000000;strokeWidth=1;endFill=0;endSize=8;startSize=8;entryX=1;entryY=1;entryDx=0;entryDy=0;exitX=0;exitY=1;exitDx=0;exitDy=0;" parent="1" source="hO8CTnTAe7Eawf2AQecL-38" target="hO8CTnTAe7Eawf2AQecL-46" edge="1"><mxGeometry width="50" height="50" relative="1" as="geometry"><mxPoint x="390" y="680" as="sourcePoint"/><mxPoint x="250" y="679.58" as="targetPoint"/></mxGeometry></mxCell><mxCell id="hO8CTnTAe7Eawf2AQecL-44" value="entregaFacturaCliente()" style="endArrow=classic;html=1;strokeWidth=1;entryX=0;entryY=0;entryDx=0;entryDy=0;exitX=1;exitY=0;exitDx=0;exitDy=0;" parent="1" source="hO8CTnTAe7Eawf2AQecL-38" target="hO8CTnTAe7Eawf2AQecL-48" edge="1"><mxGeometry x="-0.1429" width="50" height="50" relative="1" as="geometry"><mxPoint x="450" y="640" as="sourcePoint"/><mxPoint x="590" y="640" as="targetPoint"/><mxPoint as="offset"/></mxGeometry></mxCell><mxCell id="hO8CTnTAe7Eawf2AQecL-45" value="" style="endArrow=open;dashed=1;html=1;strokeColor=#000000;strokeWidth=1;endFill=0;endSize=8;startSize=8;exitX=0;exitY=1;exitDx=0;exitDy=0;entryX=1;entryY=1;entryDx=0;entryDy=0;" parent="1" source="hO8CTnTAe7Eawf2AQecL-48" target="hO8CTnTAe7Eawf2AQecL-38" edge="1"><mxGeometry width="50" height="50" relative="1" as="geometry"><mxPoint x="590" y="679.58" as="sourcePoint"/><mxPoint x="450" y="680" as="targetPoint"/></mxGeometry></mxCell><mxCell id="hO8CTnTAe7Eawf2AQecL-46" value="" style="rounded=0;whiteSpace=wrap;html=1;" parent="1" vertex="1"><mxGeometry x="200" y="640" width="40" height="40" as="geometry"/></mxCell><mxCell id="hO8CTnTAe7Eawf2AQecL-48" value="" style="rounded=0;whiteSpace=wrap;html=1;" parent="1" vertex="1"><mxGeometry x="600" y="640" width="40" height="40" as="geometry"/></mxCell><mxCell id="hO8CTnTAe7Eawf2AQecL-49" value="" style="endArrow=open;dashed=1;html=1;strokeColor=#000000;strokeWidth=1;endFill=0;endSize=8;startSize=8;" parent="1" edge="1"><mxGeometry width="50" height="50" relative="1" as="geometry"><mxPoint x="200" y="679" as="sourcePoint"/><mxPoint x="60" y="679.17" as="targetPoint"/></mxGeometry></mxCell><mxCell id="hO8CTnTAe7Eawf2AQecL-22" value="" style="rounded=0;whiteSpace=wrap;html=1;" parent="1" vertex="1"><mxGeometry x="600" y="480" width="40" height="60" as="geometry"/></mxCell><mxCell id="06b96AH9om1RXA471xMc-1" value="" style="endArrow=none;dashed=1;html=1;strokeWidth=2;fillColor=#dae8fc;strokeColor=#3333FF;" parent="1" target="hO8CTnTAe7Eawf2AQecL-22" edge="1"><mxGeometry width="50" height="50" relative="1" as="geometry"><mxPoint x="620" y="840" as="sourcePoint"/><mxPoint x="620" y="160" as="targetPoint"/></mxGeometry></mxCell><mxCell id="gDaxWYa9jy69CfYZWvsP-1" value="Diagrama de Sequência - Facturação" style="rounded=0;whiteSpace=wrap;html=1;fontColor=#0000CC;" parent="1" vertex="1"><mxGeometry x="160" y="20" width="380" height="30" as="geometry"/></mxCell></root></mxGraphModel></diagram><diagram name="Atribuir Vaga" id="4KfI_MMCa4yM40Bz5g-b"><mxGraphModel dx="454" dy="210" grid="1" gridSize="10" guides="1" tooltips="1" connect="1" arrows="1" fold="1" page="1" pageScale="1" pageWidth="827" pageHeight="1169" math="0" shadow="0"><root><mxCell id="5AYwY359rfTVdC4dCnKr-0"/><mxCell id="5AYwY359rfTVdC4dCnKr-1" parent="5AYwY359rfTVdC4dCnKr-0"/><mxCell id="wrcF2Uz3QnPUzupPBUTH-21" value="" style="rounded=0;whiteSpace=wrap;html=1;labelBackgroundColor=none;strokeWidth=2;fillColor=#FFFFFF;align=left;" parent="5AYwY359rfTVdC4dCnKr-1" vertex="1"><mxGeometry x="50" y="678.6" width="400" height="161.4" as="geometry"/></mxCell><mxCell id="wrcF2Uz3QnPUzupPBUTH-20" value="" style="rounded=0;whiteSpace=wrap;html=1;labelBackgroundColor=none;strokeWidth=2;fillColor=#FFFFFF;align=left;" parent="5AYwY359rfTVdC4dCnKr-1" vertex="1"><mxGeometry x="50" y="360" width="400" height="320" as="geometry"/></mxCell><mxCell id="rR4Ji8zT3hNLqgpskdZH-1" value="" style="endArrow=none;dashed=1;html=1;strokeWidth=2;fillColor=#dae8fc;strokeColor=#3333FF;" parent="5AYwY359rfTVdC4dCnKr-1" edge="1"><mxGeometry width="50" height="50" relative="1" as="geometry"><mxPoint x="220" y="880" as="sourcePoint"/><mxPoint x="220" y="440" as="targetPoint"/></mxGeometry></mxCell><mxCell id="huelvOb1-22fl3Q3t9y2-0" value=": Utente" style="rounded=0;whiteSpace=wrap;html=1;" parent="5AYwY359rfTVdC4dCnKr-1" vertex="1"><mxGeometry x="160" y="80" width="120" height="40" as="geometry"/></mxCell><mxCell id="huelvOb1-22fl3Q3t9y2-1" value="Sistema&lt;br&gt;de Vagas" style="shape=umlActor;verticalLabelPosition=bottom;verticalAlign=top;html=1;outlineConnect=0;" parent="5AYwY359rfTVdC4dCnKr-1" vertex="1"><mxGeometry x="40" y="80" width="40" height="70" as="geometry"/></mxCell><mxCell id="huelvOb1-22fl3Q3t9y2-2" value=": Sistema Informático" style="rounded=0;whiteSpace=wrap;html=1;" parent="5AYwY359rfTVdC4dCnKr-1" vertex="1"><mxGeometry x="360" y="80" width="120" height="40" as="geometry"/></mxCell><mxCell id="ceWhE7J2lFOy_AOx4QZ7-1" value="" style="endArrow=none;dashed=1;html=1;strokeWidth=2;fillColor=#dae8fc;strokeColor=#3333FF;" parent="5AYwY359rfTVdC4dCnKr-1" edge="1"><mxGeometry width="50" height="50" relative="1" as="geometry"><mxPoint x="60" y="880" as="sourcePoint"/><mxPoint x="59.5" y="180" as="targetPoint"/></mxGeometry></mxCell><mxCell id="ceWhE7J2lFOy_AOx4QZ7-3" value="" style="endArrow=none;dashed=1;html=1;strokeWidth=2;fillColor=#dae8fc;strokeColor=#3333FF;" parent="5AYwY359rfTVdC4dCnKr-1" source="wrcF2Uz3QnPUzupPBUTH-13" edge="1"><mxGeometry width="50" height="50" relative="1" as="geometry"><mxPoint x="420" y="1000" as="sourcePoint"/><mxPoint x="420" y="160" as="targetPoint"/></mxGeometry></mxCell><mxCell id="ePgolRv8IFbqYyioInZo-0" value="atribuirVagaUtente()" style="endArrow=classic;html=1;strokeWidth=1;" parent="5AYwY359rfTVdC4dCnKr-1" edge="1"><mxGeometry x="0.014" y="-69" width="50" height="50" relative="1" as="geometry"><mxPoint x="60" y="200" as="sourcePoint"/><mxPoint x="60" y="277" as="targetPoint"/><Array as="points"><mxPoint x="100" y="207"/></Array><mxPoint x="86" y="31" as="offset"/></mxGeometry></mxCell><mxCell id="Rn9xOFVkHRvaP35qVuyh-0" value="«create»" style="endArrow=classic;html=1;strokeWidth=1;" parent="5AYwY359rfTVdC4dCnKr-1" edge="1"><mxGeometry width="50" height="50" relative="1" as="geometry"><mxPoint x="60" y="300" as="sourcePoint"/><mxPoint x="220" y="300" as="targetPoint"/></mxGeometry></mxCell><mxCell id="rR4Ji8zT3hNLqgpskdZH-0" value="" style="rounded=0;whiteSpace=wrap;html=1;" parent="5AYwY359rfTVdC4dCnKr-1" vertex="1"><mxGeometry x="200" y="320" width="40" height="40" as="geometry"/></mxCell><mxCell id="qQF9PVzehrA-bBYgVKkb-0" value="enviarMensagem()" style="endArrow=classic;html=1;strokeWidth=1;entryX=0;entryY=0;entryDx=0;entryDy=0;" parent="5AYwY359rfTVdC4dCnKr-1" edge="1"><mxGeometry width="50" height="50" relative="1" as="geometry"><mxPoint x="60" y="320" as="sourcePoint"/><mxPoint x="200" y="320" as="targetPoint"/></mxGeometry></mxCell><mxCell id="wrcF2Uz3QnPUzupPBUTH-14" value="" style="endArrow=none;dashed=1;html=1;strokeWidth=2;fillColor=#dae8fc;strokeColor=#3333FF;" parent="5AYwY359rfTVdC4dCnKr-1" target="wrcF2Uz3QnPUzupPBUTH-13" edge="1"><mxGeometry width="50" height="50" relative="1" as="geometry"><mxPoint x="420" y="880" as="sourcePoint"/><mxPoint x="420" y="160" as="targetPoint"/></mxGeometry></mxCell><mxCell id="ceWhE7J2lFOy_AOx4QZ7-2" value="" style="endArrow=none;dashed=1;html=1;strokeWidth=2;fillColor=#dae8fc;strokeColor=#3333FF;" parent="5AYwY359rfTVdC4dCnKr-1" source="rR4Ji8zT3hNLqgpskdZH-0" edge="1"><mxGeometry width="50" height="50" relative="1" as="geometry"><mxPoint x="220" y="1000" as="sourcePoint"/><mxPoint x="220" y="160" as="targetPoint"/></mxGeometry></mxCell><mxCell id="wrcF2Uz3QnPUzupPBUTH-1" value="" style="endArrow=none;html=1;labelBackgroundColor=none;strokeWidth=2;exitX=0;exitY=0.5;exitDx=0;exitDy=0;entryX=1;entryY=0.5;entryDx=0;entryDy=0;dashed=1;strokeColor=#FFFFFF;" parent="5AYwY359rfTVdC4dCnKr-1" edge="1"><mxGeometry x="55" y="360" width="50" height="50" as="geometry"><mxPoint x="55" y="680" as="sourcePoint"/><mxPoint x="445" y="680" as="targetPoint"/></mxGeometry></mxCell><mxCell id="wrcF2Uz3QnPUzupPBUTH-2" value="ALT" style="text;html=1;strokeColor=none;fillColor=none;align=center;verticalAlign=middle;whiteSpace=wrap;rounded=0;fontStyle=1" parent="5AYwY359rfTVdC4dCnKr-1" vertex="1"><mxGeometry x="50" y="360" width="48.75" height="51.20000000000002" as="geometry"/></mxCell><mxCell id="wrcF2Uz3QnPUzupPBUTH-3" value="{confirma = True}" style="text;html=1;strokeColor=none;fillColor=none;align=left;verticalAlign=middle;whiteSpace=wrap;rounded=0;" parent="5AYwY359rfTVdC4dCnKr-1" vertex="1"><mxGeometry x="60" y="397.53" width="146.25" height="13.67" as="geometry"/></mxCell><mxCell id="wrcF2Uz3QnPUzupPBUTH-4" value="{confirma = False OR não responde dentro do tempo}" style="text;html=1;strokeColor=none;fillColor=none;align=left;verticalAlign=middle;whiteSpace=wrap;rounded=0;" parent="5AYwY359rfTVdC4dCnKr-1" vertex="1"><mxGeometry x="60" y="700" width="146.25" height="17.2" as="geometry"/></mxCell><mxCell id="FiUIgCn4gPfowO--44_3-0" value="" style="endArrow=open;dashed=1;html=1;strokeColor=#000000;strokeWidth=1;endFill=0;endSize=8;startSize=8;exitX=0;exitY=1;exitDx=0;exitDy=0;" parent="5AYwY359rfTVdC4dCnKr-1" edge="1"><mxGeometry x="50" y="360" width="50" height="50" as="geometry"><mxPoint x="200" y="435.2941176470589" as="sourcePoint"/><mxPoint x="60" y="435.2941176470589" as="targetPoint"/></mxGeometry></mxCell><mxCell id="wrcF2Uz3QnPUzupPBUTH-8" value="" style="rounded=0;whiteSpace=wrap;html=1;" parent="5AYwY359rfTVdC4dCnKr-1" vertex="1"><mxGeometry x="200" y="360" width="40" height="75.29411764705883" as="geometry"/></mxCell><mxCell id="wrcF2Uz3QnPUzupPBUTH-9" value="removerUtenteDaLista()" style="endArrow=classic;html=1;strokeWidth=1;" parent="5AYwY359rfTVdC4dCnKr-1" edge="1"><mxGeometry y="40" width="50" height="50" as="geometry"><mxPoint x="60" y="460.0009677419355" as="sourcePoint"/><mxPoint x="60.25" y="511.8162745098039" as="targetPoint"/><Array as="points"><mxPoint x="100" y="474.45258064516133"/></Array><mxPoint x="110" y="-11" as="offset"/></mxGeometry></mxCell><mxCell id="wrcF2Uz3QnPUzupPBUTH-11" value="«create»" style="endArrow=classic;html=1;strokeWidth=1;" parent="5AYwY359rfTVdC4dCnKr-1" edge="1"><mxGeometry x="50" y="360" width="50" height="50" as="geometry"><mxPoint x="60" y="540" as="sourcePoint"/><mxPoint x="420" y="540" as="targetPoint"/></mxGeometry></mxCell><mxCell id="wrcF2Uz3QnPUzupPBUTH-12" value="registarDataHora()" style="endArrow=classic;html=1;strokeWidth=1;" parent="5AYwY359rfTVdC4dCnKr-1" edge="1"><mxGeometry x="50" y="360" width="50" height="50" as="geometry"><mxPoint x="60" y="559.5033333333333" as="sourcePoint"/><mxPoint x="400" y="559.5033333333333" as="targetPoint"/></mxGeometry></mxCell><mxCell id="wrcF2Uz3QnPUzupPBUTH-15" value="" style="endArrow=open;dashed=1;html=1;strokeColor=#000000;strokeWidth=1;endFill=0;endSize=8;startSize=8;" parent="5AYwY359rfTVdC4dCnKr-1" edge="1"><mxGeometry x="50" y="360" width="50" height="50" as="geometry"><mxPoint x="400" y="580.0003921568627" as="sourcePoint"/><mxPoint x="61.25" y="580.0003921568627" as="targetPoint"/></mxGeometry></mxCell><mxCell id="wrcF2Uz3QnPUzupPBUTH-16" value="removerVaga()" style="endArrow=classic;html=1;strokeWidth=1;" parent="5AYwY359rfTVdC4dCnKr-1" edge="1"><mxGeometry y="40" width="50" height="50" as="geometry"><mxPoint x="60" y="598.9990069576218" as="sourcePoint"/><mxPoint x="60.25" y="650.8143137254901" as="targetPoint"/><Array as="points"><mxPoint x="100" y="613.4506198608475"/></Array><mxPoint x="90" y="-11" as="offset"/></mxGeometry></mxCell><mxCell id="wrcF2Uz3QnPUzupPBUTH-13" value="" style="rounded=0;whiteSpace=wrap;html=1;" parent="5AYwY359rfTVdC4dCnKr-1" vertex="1"><mxGeometry x="400" y="560" width="40" height="20" as="geometry"/></mxCell><mxCell id="wrcF2Uz3QnPUzupPBUTH-17" value="" style="rounded=0;whiteSpace=wrap;html=1;" parent="5AYwY359rfTVdC4dCnKr-1" vertex="1"><mxGeometry x="200" y="680" width="40" height="75.29411764705883" as="geometry"/></mxCell><mxCell id="wrcF2Uz3QnPUzupPBUTH-18" value="" style="endArrow=open;dashed=1;html=1;strokeColor=#000000;strokeWidth=1;endFill=0;endSize=8;startSize=8;exitX=0;exitY=1;exitDx=0;exitDy=0;" parent="5AYwY359rfTVdC4dCnKr-1" edge="1"><mxGeometry x="50" y="360" width="50" height="50" as="geometry"><mxPoint x="200" y="755.294117647059" as="sourcePoint"/><mxPoint x="60" y="755.294117647059" as="targetPoint"/></mxGeometry></mxCell><mxCell id="wrcF2Uz3QnPUzupPBUTH-19" value="proximoUtenteDaLista()" style="endArrow=classic;html=1;strokeWidth=1;" parent="5AYwY359rfTVdC4dCnKr-1" edge="1"><mxGeometry y="40" width="50" height="50" as="geometry"><mxPoint x="58.75" y="779.9990069576218" as="sourcePoint"/><mxPoint x="59" y="831.8143137254901" as="targetPoint"/><Array as="points"><mxPoint x="98.75" y="794.4506198608475"/></Array><mxPoint x="111" y="-11" as="offset"/></mxGeometry></mxCell><mxCell id="xH3S4r-9zHtaTTuLSS2h-0" value="Diagrama de Sequência - Atribuir Vaga" style="rounded=0;whiteSpace=wrap;html=1;fontColor=#0000CC;" parent="5AYwY359rfTVdC4dCnKr-1" vertex="1"><mxGeometry x="80" y="30" width="380" height="30" as="geometry"/></mxCell></root></mxGraphModel></diagram><diagram name="Marcar Consulta" id="kluEzph8G5ekH2wgPhSW"><mxGraphModel dx="454" dy="210" grid="1" gridSize="10" guides="1" tooltips="1" connect="1" arrows="1" fold="1" page="1" pageScale="1" pageWidth="850" pageHeight="1100" math="0" shadow="0"><root><mxCell id="0"/><mxCell id="1" parent="0"/><mxCell id="F6ioT5Sw9zix-FrWTJoX-1" value="" style="rounded=0;whiteSpace=wrap;html=1;fontColor=#000000;align=left;fillColor=none;" parent="1" vertex="1"><mxGeometry x="20" y="420" width="810" height="440" as="geometry"/></mxCell><mxCell id="3nuBFxr9cyL0pnOWT2aG-1" value=":Interface" style="shape=umlLifeline;perimeter=lifelinePerimeter;container=1;collapsible=0;recursiveResize=0;rounded=0;shadow=0;strokeWidth=1;" parent="1" vertex="1"><mxGeometry x="280" y="70" width="100" height="810" as="geometry"/></mxCell><mxCell id="3nuBFxr9cyL0pnOWT2aG-2" value="" style="points=[];perimeter=orthogonalPerimeter;rounded=0;shadow=0;strokeWidth=1;" parent="3nuBFxr9cyL0pnOWT2aG-1" vertex="1"><mxGeometry x="45" y="80" width="10" height="100" as="geometry"/></mxCell><mxCell id="YQtkqXcjkH6NP58llE0U-8" value="" style="points=[];perimeter=orthogonalPerimeter;rounded=0;shadow=0;strokeWidth=1;" parent="3nuBFxr9cyL0pnOWT2aG-1" vertex="1"><mxGeometry x="45" y="210" width="10" height="50" as="geometry"/></mxCell><mxCell id="YQtkqXcjkH6NP58llE0U-16" value="" style="points=[];perimeter=orthogonalPerimeter;rounded=0;shadow=0;strokeWidth=1;" parent="3nuBFxr9cyL0pnOWT2aG-1" vertex="1"><mxGeometry x="45" y="290" width="10" height="50" as="geometry"/></mxCell><mxCell id="YQtkqXcjkH6NP58llE0U-29" value="" style="points=[];perimeter=orthogonalPerimeter;rounded=0;shadow=0;strokeWidth=1;" parent="3nuBFxr9cyL0pnOWT2aG-1" vertex="1"><mxGeometry x="45" y="393" width="10" height="67" as="geometry"/></mxCell><mxCell id="YQtkqXcjkH6NP58llE0U-46" value="" style="points=[];perimeter=orthogonalPerimeter;rounded=0;shadow=0;strokeWidth=1;" parent="3nuBFxr9cyL0pnOWT2aG-1" vertex="1"><mxGeometry x="45" y="530" width="10" height="50" as="geometry"/></mxCell><mxCell id="YQtkqXcjkH6NP58llE0U-56" value="" style="points=[];perimeter=orthogonalPerimeter;rounded=0;shadow=0;strokeWidth=1;" parent="3nuBFxr9cyL0pnOWT2aG-1" vertex="1"><mxGeometry x="45" y="620" width="10" height="130" as="geometry"/></mxCell><mxCell id="3nuBFxr9cyL0pnOWT2aG-5" value=":S.I." style="shape=umlLifeline;perimeter=lifelinePerimeter;container=1;collapsible=0;recursiveResize=0;rounded=0;shadow=0;strokeWidth=1;" parent="1" vertex="1"><mxGeometry x="520" y="70" width="100" height="810" as="geometry"/></mxCell><mxCell id="3nuBFxr9cyL0pnOWT2aG-6" value="" style="points=[];perimeter=orthogonalPerimeter;rounded=0;shadow=0;strokeWidth=1;" parent="3nuBFxr9cyL0pnOWT2aG-5" vertex="1"><mxGeometry x="45" y="110" width="10" height="70" as="geometry"/></mxCell><mxCell id="YQtkqXcjkH6NP58llE0U-7" value="" style="points=[];perimeter=orthogonalPerimeter;rounded=0;shadow=0;strokeWidth=1;" parent="3nuBFxr9cyL0pnOWT2aG-5" vertex="1"><mxGeometry x="45" y="210" width="10" height="50" as="geometry"/></mxCell><mxCell id="YQtkqXcjkH6NP58llE0U-19" value="" style="points=[];perimeter=orthogonalPerimeter;rounded=0;shadow=0;strokeWidth=1;" parent="3nuBFxr9cyL0pnOWT2aG-5" vertex="1"><mxGeometry x="45" y="300" width="10" height="40" as="geometry"/></mxCell><mxCell id="YQtkqXcjkH6NP58llE0U-30" value="" style="points=[];perimeter=orthogonalPerimeter;rounded=0;shadow=0;strokeWidth=1;" parent="3nuBFxr9cyL0pnOWT2aG-5" vertex="1"><mxGeometry x="45" y="403" width="10" height="67" as="geometry"/></mxCell><mxCell id="YQtkqXcjkH6NP58llE0U-47" value="" style="points=[];perimeter=orthogonalPerimeter;rounded=0;shadow=0;strokeWidth=1;" parent="3nuBFxr9cyL0pnOWT2aG-5" vertex="1"><mxGeometry x="45" y="540" width="10" height="40" as="geometry"/></mxCell><mxCell id="YQtkqXcjkH6NP58llE0U-57" value="" style="points=[];perimeter=orthogonalPerimeter;rounded=0;shadow=0;strokeWidth=1;" parent="3nuBFxr9cyL0pnOWT2aG-5" vertex="1"><mxGeometry x="45" y="630" width="10" height="120" as="geometry"/></mxCell><mxCell id="YQtkqXcjkH6NP58llE0U-1" value="&lt;u&gt;Utente&lt;/u&gt;" style="shape=umlActor;verticalLabelPosition=bottom;verticalAlign=top;html=1;outlineConnect=0;" parent="1" vertex="1"><mxGeometry x="50" y="20" width="30" height="60" as="geometry"/></mxCell><mxCell id="3nuBFxr9cyL0pnOWT2aG-3" value="fazer log in (nºutente)" style="verticalAlign=bottom;startArrow=none;endArrow=open;startSize=8;shadow=0;strokeWidth=1;endFill=0;startFill=0;" parent="1" edge="1"><mxGeometry x="-0.1481" y="2" relative="1" as="geometry"><mxPoint x="65" y="152" as="sourcePoint"/><mxPoint x="330" y="152" as="targetPoint"/><mxPoint as="offset"/></mxGeometry></mxCell><mxCell id="YQtkqXcjkH6NP58llE0U-2" style="edgeStyle=elbowEdgeStyle;rounded=0;orthogonalLoop=1;jettySize=auto;html=1;endArrow=classic;endFill=1;" parent="1" source="3nuBFxr9cyL0pnOWT2aG-2" target="3nuBFxr9cyL0pnOWT2aG-6" edge="1"><mxGeometry relative="1" as="geometry"><Array as="points"><mxPoint x="400" y="220"/><mxPoint x="490" y="210"/><mxPoint x="413" y="210"/></Array></mxGeometry></mxCell><mxCell id="YQtkqXcjkH6NP58llE0U-3" value="obter lista de especialidades()" style="edgeLabel;html=1;align=center;verticalAlign=middle;resizable=0;points=[];" parent="YQtkqXcjkH6NP58llE0U-2" vertex="1" connectable="0"><mxGeometry x="0.1032" y="1" relative="1" as="geometry"><mxPoint x="-32" y="-9" as="offset"/></mxGeometry></mxCell><mxCell id="YQtkqXcjkH6NP58llE0U-4" style="edgeStyle=elbowEdgeStyle;rounded=0;orthogonalLoop=1;jettySize=auto;html=1;dashed=1;endArrow=open;endFill=0;" parent="1" source="3nuBFxr9cyL0pnOWT2aG-6" edge="1"><mxGeometry relative="1" as="geometry"><mxPoint x="340" y="241" as="targetPoint"/><Array as="points"><mxPoint x="560" y="241"/><mxPoint x="540" y="240"/><mxPoint x="520" y="230"/></Array></mxGeometry></mxCell><mxCell id="YQtkqXcjkH6NP58llE0U-5" value="" style="endArrow=none;dashed=1;html=1;dashPattern=1 3;strokeWidth=2;fontColor=#0000CC;" parent="1" edge="1"><mxGeometry width="50" height="50" relative="1" as="geometry"><mxPoint x="65" y="880" as="sourcePoint"/><mxPoint x="65" y="100" as="targetPoint"/></mxGeometry></mxCell><mxCell id="YQtkqXcjkH6NP58llE0U-9" value="" style="endArrow=open;html=1;endFill=0;entryX=0.1;entryY=0;entryDx=0;entryDy=0;entryPerimeter=0;" parent="1" target="YQtkqXcjkH6NP58llE0U-8" edge="1"><mxGeometry width="50" height="50" relative="1" as="geometry"><mxPoint x="70" y="280" as="sourcePoint"/><mxPoint x="330" y="210" as="targetPoint"/></mxGeometry></mxCell><mxCell id="YQtkqXcjkH6NP58llE0U-10" value="escolher especialidade (ID_especialidade)" style="edgeLabel;html=1;align=center;verticalAlign=middle;resizable=0;points=[];" parent="YQtkqXcjkH6NP58llE0U-9" vertex="1" connectable="0"><mxGeometry x="0.1082" y="2" relative="1" as="geometry"><mxPoint x="3" y="-8" as="offset"/></mxGeometry></mxCell><mxCell id="YQtkqXcjkH6NP58llE0U-11" style="edgeStyle=elbowEdgeStyle;rounded=0;orthogonalLoop=1;jettySize=auto;html=1;startArrow=none;startFill=0;endArrow=classic;endFill=1;" parent="1" source="YQtkqXcjkH6NP58llE0U-8" target="3nuBFxr9cyL0pnOWT2aG-5" edge="1"><mxGeometry relative="1" as="geometry"><mxPoint x="540" y="289" as="targetPoint"/><Array as="points"><mxPoint x="390" y="285"/><mxPoint x="370" y="290"/><mxPoint x="530" y="292"/><mxPoint x="550" y="288"/><mxPoint x="490" y="288"/><mxPoint x="280" y="288"/></Array></mxGeometry></mxCell><mxCell id="YQtkqXcjkH6NP58llE0U-12" value="obter lista de meses()" style="edgeLabel;html=1;align=center;verticalAlign=middle;resizable=0;points=[];" parent="YQtkqXcjkH6NP58llE0U-11" vertex="1" connectable="0"><mxGeometry x="0.1456" y="2" relative="1" as="geometry"><mxPoint x="-59" y="-8" as="offset"/></mxGeometry></mxCell><mxCell id="YQtkqXcjkH6NP58llE0U-13" value="" style="endArrow=open;html=1;endFill=0;dashed=1;" parent="1" target="YQtkqXcjkH6NP58llE0U-8" edge="1"><mxGeometry width="50" height="50" relative="1" as="geometry"><mxPoint x="560" y="320" as="sourcePoint"/><mxPoint x="350" y="306" as="targetPoint"/></mxGeometry></mxCell><mxCell id="YQtkqXcjkH6NP58llE0U-20" value="" style="endArrow=open;html=1;endFill=0;" parent="1" edge="1"><mxGeometry width="50" height="50" relative="1" as="geometry"><mxPoint x="70" y="360" as="sourcePoint"/><mxPoint x="330" y="360" as="targetPoint"/></mxGeometry></mxCell><mxCell id="YQtkqXcjkH6NP58llE0U-21" value="escolher mês (mês)" style="edgeLabel;html=1;align=center;verticalAlign=middle;resizable=0;points=[];" parent="YQtkqXcjkH6NP58llE0U-20" vertex="1" connectable="0"><mxGeometry x="0.1082" y="2" relative="1" as="geometry"><mxPoint x="-50" y="-8" as="offset"/></mxGeometry></mxCell><mxCell id="YQtkqXcjkH6NP58llE0U-22" value="" style="endArrow=classic;html=1;endFill=1;" parent="1" target="3nuBFxr9cyL0pnOWT2aG-5" edge="1"><mxGeometry width="50" height="50" relative="1" as="geometry"><mxPoint x="340" y="370" as="sourcePoint"/><mxPoint x="560" y="370" as="targetPoint"/></mxGeometry></mxCell><mxCell id="YQtkqXcjkH6NP58llE0U-23" value="obter listas de dias com vaga ()" style="edgeLabel;html=1;align=center;verticalAlign=middle;resizable=0;points=[];" parent="YQtkqXcjkH6NP58llE0U-22" vertex="1" connectable="0"><mxGeometry x="0.1082" y="2" relative="1" as="geometry"><mxPoint x="-27" y="-8" as="offset"/></mxGeometry></mxCell><mxCell id="YQtkqXcjkH6NP58llE0U-24" value="" style="endArrow=open;html=1;endFill=0;dashed=1;" parent="1" edge="1"><mxGeometry width="50" height="50" relative="1" as="geometry"><mxPoint x="564" y="401" as="sourcePoint"/><mxPoint x="340" y="401" as="targetPoint"/></mxGeometry></mxCell><mxCell id="3nuBFxr9cyL0pnOWT2aG-8" value="procurar utilizador (nºutente)" style="verticalAlign=bottom;endArrow=classic;shadow=0;strokeWidth=1;edgeStyle=elbowEdgeStyle;endFill=1;" parent="1" source="3nuBFxr9cyL0pnOWT2aG-2" target="3nuBFxr9cyL0pnOWT2aG-5" edge="1"><mxGeometry x="-0.1898" relative="1" as="geometry"><mxPoint x="275" y="160" as="sourcePoint"/><mxPoint x="590" y="170" as="targetPoint"/><Array as="points"><mxPoint x="440" y="180"/></Array><mxPoint as="offset"/></mxGeometry></mxCell><mxCell id="YQtkqXcjkH6NP58llE0U-26" style="edgeStyle=elbowEdgeStyle;rounded=0;orthogonalLoop=1;jettySize=auto;html=1;dashed=1;endArrow=open;endFill=0;" parent="1" edge="1"><mxGeometry relative="1" as="geometry"><mxPoint x="560" y="200" as="sourcePoint"/><mxPoint x="340" y="200" as="targetPoint"/><Array as="points"><mxPoint x="450" y="200"/></Array></mxGeometry></mxCell><mxCell id="YQtkqXcjkH6NP58llE0U-27" value="" style="endArrow=open;html=1;endFill=0;" parent="1" edge="1"><mxGeometry width="50" height="50" relative="1" as="geometry"><mxPoint x="65.5" y="463" as="sourcePoint"/><mxPoint x="330" y="463" as="targetPoint"/></mxGeometry></mxCell><mxCell id="YQtkqXcjkH6NP58llE0U-28" value="&lt;div style=&quot;text-align: left&quot;&gt;[sem vagas]&amp;nbsp;&amp;nbsp;&lt;/div&gt;&lt;div style=&quot;text-align: left&quot;&gt;preencher formulário (nºutente, ID_especialidade)&lt;/div&gt;" style="edgeLabel;html=1;align=center;verticalAlign=middle;resizable=0;points=[];" parent="YQtkqXcjkH6NP58llE0U-27" vertex="1" connectable="0"><mxGeometry x="0.1082" y="2" relative="1" as="geometry"><mxPoint x="-12.5" y="-21" as="offset"/></mxGeometry></mxCell><mxCell id="YQtkqXcjkH6NP58llE0U-31" value="" style="endArrow=classicThin;html=1;endFill=1;" parent="1" edge="1"><mxGeometry width="50" height="50" relative="1" as="geometry"><mxPoint x="340" y="473" as="sourcePoint"/><mxPoint x="570" y="473" as="targetPoint"/></mxGeometry></mxCell><mxCell id="YQtkqXcjkH6NP58llE0U-32" value="criar pedido para Lista de &lt;br&gt;espera (nºutente, ID_especialidade)" style="edgeLabel;html=1;align=left;verticalAlign=middle;resizable=0;points=[];" parent="YQtkqXcjkH6NP58llE0U-31" vertex="1" connectable="0"><mxGeometry x="0.1082" y="2" relative="1" as="geometry"><mxPoint x="-107" y="-18" as="offset"/></mxGeometry></mxCell><mxCell id="YQtkqXcjkH6NP58llE0U-33" value="Diagrama de Sequência - Marcar Consulta" style="rounded=0;whiteSpace=wrap;html=1;fontColor=#0000CC;" parent="1" vertex="1"><mxGeometry x="200" y="10" width="380" height="30" as="geometry"/></mxCell><mxCell id="YQtkqXcjkH6NP58llE0U-36" value=":Lista de Espera" style="shape=umlLifeline;perimeter=lifelinePerimeter;container=1;collapsible=0;recursiveResize=0;rounded=0;shadow=0;strokeWidth=1;" parent="1" vertex="1"><mxGeometry x="750" y="70" width="90" height="810" as="geometry"/></mxCell><mxCell id="YQtkqXcjkH6NP58llE0U-40" value="" style="points=[];perimeter=orthogonalPerimeter;rounded=0;shadow=0;strokeWidth=1;" parent="YQtkqXcjkH6NP58llE0U-36" vertex="1"><mxGeometry x="40" y="443" width="10" height="30" as="geometry"/></mxCell><mxCell id="YQtkqXcjkH6NP58llE0U-41" value="" style="endArrow=classicThin;html=1;endFill=1;entryX=-0.2;entryY=0.033;entryDx=0;entryDy=0;entryPerimeter=0;" parent="1" target="YQtkqXcjkH6NP58llE0U-40" edge="1"><mxGeometry width="50" height="50" relative="1" as="geometry"><mxPoint x="580" y="514" as="sourcePoint"/><mxPoint x="780" y="483" as="targetPoint"/></mxGeometry></mxCell><mxCell id="YQtkqXcjkH6NP58llE0U-42" value="adicionar à lista de &lt;br&gt;espera (nºutente, ID:especialidade)" style="edgeLabel;html=1;align=left;verticalAlign=middle;resizable=0;points=[];" parent="YQtkqXcjkH6NP58llE0U-41" vertex="1" connectable="0"><mxGeometry x="0.1082" y="2" relative="1" as="geometry"><mxPoint x="-91" y="-18" as="offset"/></mxGeometry></mxCell><mxCell id="YQtkqXcjkH6NP58llE0U-44" value="" style="endArrow=open;html=1;endFill=0;entryX=0;entryY=0.02;entryDx=0;entryDy=0;entryPerimeter=0;" parent="1" target="YQtkqXcjkH6NP58llE0U-46" edge="1"><mxGeometry width="50" height="50" relative="1" as="geometry"><mxPoint x="68" y="601" as="sourcePoint"/><mxPoint x="320" y="570" as="targetPoint"/></mxGeometry></mxCell><mxCell id="YQtkqXcjkH6NP58llE0U-45" value="&lt;div style=&quot;text-align: left&quot;&gt;[com vagas]&amp;nbsp;&amp;nbsp;&lt;/div&gt;&lt;div style=&quot;text-align: left&quot;&gt;escolher dia (dia)&lt;/div&gt;" style="edgeLabel;html=1;align=center;verticalAlign=middle;resizable=0;points=[];" parent="YQtkqXcjkH6NP58llE0U-44" vertex="1" connectable="0"><mxGeometry x="0.1082" y="2" relative="1" as="geometry"><mxPoint x="-80" y="-18" as="offset"/></mxGeometry></mxCell><mxCell id="YQtkqXcjkH6NP58llE0U-48" value="" style="endArrow=classicThin;html=1;endFill=1;" parent="1" edge="1"><mxGeometry width="50" height="50" relative="1" as="geometry"><mxPoint x="340" y="610" as="sourcePoint"/><mxPoint x="570" y="610" as="targetPoint"/></mxGeometry></mxCell><mxCell id="YQtkqXcjkH6NP58llE0U-49" value="obter lista de vagas()&amp;nbsp;" style="edgeLabel;html=1;align=left;verticalAlign=middle;resizable=0;points=[];" parent="YQtkqXcjkH6NP58llE0U-48" vertex="1" connectable="0"><mxGeometry x="0.1082" y="2" relative="1" as="geometry"><mxPoint x="-107" y="-8" as="offset"/></mxGeometry></mxCell><mxCell id="YQtkqXcjkH6NP58llE0U-50" value="criar consulta &lt;br&gt;(nºutente, ID_especialidade, data, hora)" style="edgeLabel;html=1;align=left;verticalAlign=middle;resizable=0;points=[];" parent="YQtkqXcjkH6NP58llE0U-48" vertex="1" connectable="0"><mxGeometry x="0.1082" y="2" relative="1" as="geometry"><mxPoint x="-107" y="72" as="offset"/></mxGeometry></mxCell><mxCell id="YQtkqXcjkH6NP58llE0U-51" value="" style="endArrow=open;html=1;endFill=0;dashed=1;" parent="1" edge="1"><mxGeometry width="50" height="50" relative="1" as="geometry"><mxPoint x="564" y="639.5" as="sourcePoint"/><mxPoint x="340" y="639.5" as="targetPoint"/></mxGeometry></mxCell><mxCell id="YQtkqXcjkH6NP58llE0U-53" value="" style="endArrow=open;html=1;endFill=0;" parent="1" edge="1"><mxGeometry width="50" height="50" relative="1" as="geometry"><mxPoint x="70" y="690" as="sourcePoint"/><mxPoint x="330" y="690" as="targetPoint"/></mxGeometry></mxCell><mxCell id="YQtkqXcjkH6NP58llE0U-54" value="escolher vaga (hora)" style="edgeLabel;html=1;align=center;verticalAlign=middle;resizable=0;points=[];" parent="YQtkqXcjkH6NP58llE0U-53" vertex="1" connectable="0"><mxGeometry x="0.1082" y="2" relative="1" as="geometry"><mxPoint x="-39" y="-8" as="offset"/></mxGeometry></mxCell><mxCell id="YQtkqXcjkH6NP58llE0U-58" value="" style="endArrow=classicThin;html=1;endFill=1;" parent="1" edge="1"><mxGeometry width="50" height="50" relative="1" as="geometry"><mxPoint x="340" y="700" as="sourcePoint"/><mxPoint x="560" y="700" as="targetPoint"/></mxGeometry></mxCell><mxCell id="YQtkqXcjkH6NP58llE0U-61" value=": consulta" style="rounded=0;whiteSpace=wrap;html=1;align=left;" parent="1" vertex="1"><mxGeometry x="730" y="720" width="60" height="30" as="geometry"/></mxCell><mxCell id="YQtkqXcjkH6NP58llE0U-64" value="" style="endArrow=none;dashed=1;html=1;dashPattern=1 3;strokeWidth=2;fontColor=#000000;entryX=-0.2;entryY=-0.05;entryDx=0;entryDy=0;exitX=1.1;exitY=0.2;exitDx=0;exitDy=0;exitPerimeter=0;entryPerimeter=0;" parent="1" source="YQtkqXcjkH6NP58llE0U-57" target="YQtkqXcjkH6NP58llE0U-66" edge="1"><mxGeometry width="50" height="50" relative="1" as="geometry"><mxPoint x="470" y="760" as="sourcePoint"/><mxPoint x="520" y="710" as="targetPoint"/></mxGeometry></mxCell><mxCell id="YQtkqXcjkH6NP58llE0U-65" value="" style="endArrow=none;dashed=1;html=1;dashPattern=1 3;strokeWidth=2;fontColor=#000000;entryX=0.1;entryY=0.925;entryDx=0;entryDy=0;exitX=1;exitY=0.875;exitDx=0;exitDy=0;exitPerimeter=0;entryPerimeter=0;" parent="1" source="YQtkqXcjkH6NP58llE0U-57" target="YQtkqXcjkH6NP58llE0U-66" edge="1"><mxGeometry width="50" height="50" relative="1" as="geometry"><mxPoint x="470" y="760" as="sourcePoint"/><mxPoint x="520" y="710" as="targetPoint"/></mxGeometry></mxCell><mxCell id="YQtkqXcjkH6NP58llE0U-68" value="" style="endArrow=classicThin;html=1;endFill=1;" parent="1" edge="1"><mxGeometry width="50" height="50" relative="1" as="geometry"><mxPoint x="610" y="764.5" as="sourcePoint"/><mxPoint x="759" y="764.5" as="targetPoint"/></mxGeometry></mxCell><mxCell id="YQtkqXcjkH6NP58llE0U-69" value="guarda()" style="edgeLabel;html=1;align=center;verticalAlign=middle;resizable=0;points=[];fontColor=#000000;" parent="YQtkqXcjkH6NP58llE0U-68" vertex="1" connectable="0"><mxGeometry x="-0.2753" y="-2" relative="1" as="geometry"><mxPoint x="-5" y="-11.999999999999998" as="offset"/></mxGeometry></mxCell><mxCell id="YQtkqXcjkH6NP58llE0U-72" value="" style="endArrow=none;dashed=1;html=1;dashPattern=1 3;strokeWidth=2;fontColor=#000000;entryX=0.5;entryY=1;entryDx=0;entryDy=0;entryPerimeter=0;" parent="1" target="YQtkqXcjkH6NP58llE0U-61" edge="1"><mxGeometry width="50" height="50" relative="1" as="geometry"><mxPoint x="760" y="820" as="sourcePoint"/><mxPoint x="760" y="756" as="targetPoint"/></mxGeometry></mxCell><mxCell id="YQtkqXcjkH6NP58llE0U-66" value="" style="points=[];perimeter=orthogonalPerimeter;rounded=0;shadow=0;strokeWidth=1;" parent="1" vertex="1"><mxGeometry x="600" y="730" width="10" height="70" as="geometry"/></mxCell><mxCell id="YQtkqXcjkH6NP58llE0U-75" value="" style="endArrow=open;html=1;fontColor=#000000;entryX=0;entryY=0.5;entryDx=0;entryDy=0;endFill=0;exitX=1;exitY=0.057;exitDx=0;exitDy=0;exitPerimeter=0;" parent="1" source="YQtkqXcjkH6NP58llE0U-66" target="YQtkqXcjkH6NP58llE0U-61" edge="1"><mxGeometry width="50" height="50" relative="1" as="geometry"><mxPoint x="613" y="695" as="sourcePoint"/><mxPoint x="460" y="670" as="targetPoint"/></mxGeometry></mxCell><mxCell id="YQtkqXcjkH6NP58llE0U-76" value="&amp;lt;&amp;lt;create &amp;gt;&amp;gt;" style="edgeLabel;html=1;align=center;verticalAlign=middle;resizable=0;points=[];fontColor=#000000;" parent="YQtkqXcjkH6NP58llE0U-75" vertex="1" connectable="0"><mxGeometry x="-0.2991" relative="1" as="geometry"><mxPoint x="6" y="-15" as="offset"/></mxGeometry></mxCell><mxCell id="YQtkqXcjkH6NP58llE0U-77" value="" style="endArrow=open;html=1;fontColor=#000000;entryX=1.4;entryY=0.957;entryDx=0;entryDy=0;entryPerimeter=0;dashed=1;endFill=0;" parent="1" target="YQtkqXcjkH6NP58llE0U-66" edge="1"><mxGeometry width="50" height="50" relative="1" as="geometry"><mxPoint x="760" y="797" as="sourcePoint"/><mxPoint x="460" y="670" as="targetPoint"/></mxGeometry></mxCell><mxCell id="YQtkqXcjkH6NP58llE0U-79" value="remover vaga&lt;br&gt;&amp;nbsp;(data, hora)" style="edgeLabel;html=1;align=center;verticalAlign=middle;resizable=0;points=[];fontColor=#000000;" parent="YQtkqXcjkH6NP58llE0U-77" vertex="1" connectable="0"><mxGeometry x="0.274" relative="1" as="geometry"><mxPoint x="3" y="-16.99" as="offset"/></mxGeometry></mxCell><mxCell id="YQtkqXcjkH6NP58llE0U-80" value="" style="endArrow=open;html=1;dashed=1;fontColor=#000000;entryX=1.4;entryY=0.954;entryDx=0;entryDy=0;entryPerimeter=0;exitX=0;exitY=0.925;exitDx=0;exitDy=0;exitPerimeter=0;endFill=0;" parent="1" source="YQtkqXcjkH6NP58llE0U-57" target="YQtkqXcjkH6NP58llE0U-56" edge="1"><mxGeometry width="50" height="50" relative="1" as="geometry"><mxPoint x="410" y="810" as="sourcePoint"/><mxPoint x="460" y="760" as="targetPoint"/></mxGeometry></mxCell><mxCell id="UlWRZiljdsw1bA-XSTTg-1" value="" style="endArrow=open;html=1;fontColor=#000000;endFill=0;" parent="1" target="3nuBFxr9cyL0pnOWT2aG-1" edge="1"><mxGeometry width="50" height="50" relative="1" as="geometry"><mxPoint x="70" y="120" as="sourcePoint"/><mxPoint x="430" y="70" as="targetPoint"/></mxGeometry></mxCell><mxCell id="UlWRZiljdsw1bA-XSTTg-2" value="&amp;lt;&amp;lt;create&amp;gt;&amp;gt;" style="edgeLabel;html=1;align=center;verticalAlign=middle;resizable=0;points=[];fontColor=#000000;" parent="UlWRZiljdsw1bA-XSTTg-1" vertex="1" connectable="0"><mxGeometry x="-0.4451" relative="1" as="geometry"><mxPoint x="8" y="-10" as="offset"/></mxGeometry></mxCell><mxCell id="UlWRZiljdsw1bA-XSTTg-3" value="" style="endArrow=open;html=1;fontColor=#000000;endFill=0;" parent="1" edge="1"><mxGeometry width="50" height="50" relative="1" as="geometry"><mxPoint x="335" y="150" as="sourcePoint"/><mxPoint x="570" y="150" as="targetPoint"/></mxGeometry></mxCell><mxCell id="UlWRZiljdsw1bA-XSTTg-4" value="&amp;lt;&amp;lt;create&amp;gt;&amp;gt;" style="edgeLabel;html=1;align=center;verticalAlign=middle;resizable=0;points=[];fontColor=#000000;" parent="UlWRZiljdsw1bA-XSTTg-3" vertex="1" connectable="0"><mxGeometry x="-0.4451" relative="1" as="geometry"><mxPoint x="8" y="-10" as="offset"/></mxGeometry></mxCell><mxCell id="UlWRZiljdsw1bA-XSTTg-5" value="" style="endArrow=open;html=1;fontColor=#000000;endFill=0;exitX=1.2;exitY=0.045;exitDx=0;exitDy=0;exitPerimeter=0;" parent="1" source="YQtkqXcjkH6NP58llE0U-30" target="YQtkqXcjkH6NP58llE0U-36" edge="1"><mxGeometry width="50" height="50" relative="1" as="geometry"><mxPoint x="680" y="420" as="sourcePoint"/><mxPoint x="915" y="420" as="targetPoint"/></mxGeometry></mxCell><mxCell id="UlWRZiljdsw1bA-XSTTg-6" value="&amp;lt;&amp;lt;create&amp;gt;&amp;gt;" style="edgeLabel;html=1;align=center;verticalAlign=middle;resizable=0;points=[];fontColor=#000000;" parent="UlWRZiljdsw1bA-XSTTg-5" vertex="1" connectable="0"><mxGeometry x="-0.4451" relative="1" as="geometry"><mxPoint x="8" y="-10" as="offset"/></mxGeometry></mxCell><mxCell id="F6ioT5Sw9zix-FrWTJoX-2" value="" style="endArrow=none;dashed=1;html=1;dashPattern=1 3;strokeWidth=2;fontColor=#000000;exitX=0;exitY=0.313;exitDx=0;exitDy=0;exitPerimeter=0;entryX=1;entryY=0.325;entryDx=0;entryDy=0;entryPerimeter=0;" parent="1" source="F6ioT5Sw9zix-FrWTJoX-1" target="F6ioT5Sw9zix-FrWTJoX-1" edge="1"><mxGeometry width="50" height="50" relative="1" as="geometry"><mxPoint x="420" y="620" as="sourcePoint"/><mxPoint x="820" y="592" as="targetPoint"/></mxGeometry></mxCell><mxCell id="F6ioT5Sw9zix-FrWTJoX-3" value="ALT" style="text;html=1;strokeColor=none;fillColor=none;align=center;verticalAlign=middle;whiteSpace=wrap;rounded=0;fontColor=#000000;fontStyle=1;fontSize=14;" parent="1" vertex="1"><mxGeometry x="20" y="430" width="40" height="20" as="geometry"/></mxCell><mxCell id="F6ioT5Sw9zix-FrWTJoX-4" value="" style="endArrow=open;html=1;dashed=1;fontColor=#000000;entryX=1.4;entryY=0.954;entryDx=0;entryDy=0;entryPerimeter=0;endFill=0;" parent="1" edge="1"><mxGeometry width="50" height="50" relative="1" as="geometry"><mxPoint x="566" y="523" as="sourcePoint"/><mxPoint x="340" y="523.02" as="targetPoint"/></mxGeometry></mxCell><mxCell id="F6ioT5Sw9zix-FrWTJoX-6" value="" style="endArrow=open;html=1;dashed=1;fontColor=#000000;endFill=0;" parent="1" edge="1"><mxGeometry width="50" height="50" relative="1" as="geometry"><mxPoint x="790" y="533" as="sourcePoint"/><mxPoint x="580" y="533" as="targetPoint"/></mxGeometry></mxCell></root></mxGraphModel></diagram><diagram name="Desmarcar Consulta" id="IEbZXDrV7TUi48Hv449k"><mxGraphModel dx="454" dy="210" grid="1" gridSize="10" guides="1" tooltips="1" connect="1" arrows="1" fold="1" page="1" pageScale="1" pageWidth="827" pageHeight="1169" math="0" shadow="0"><root><mxCell id="CQdg7doARLt-vxPC2LLc-0"/><mxCell id="CQdg7doARLt-vxPC2LLc-1" parent="CQdg7doARLt-vxPC2LLc-0"/><mxCell id="v-d1ZgnJgfTMmsWn8UQr-0" value="Diagrama de Sequência - Desmarcar Consulta" style="rounded=0;whiteSpace=wrap;html=1;fontColor=#0000CC;" parent="CQdg7doARLt-vxPC2LLc-1" vertex="1"><mxGeometry x="200" y="40" width="380" height="30" as="geometry"/></mxCell><mxCell id="dFjp2i41HHwRCopWuz6G-0" value="&lt;u&gt;&lt;font color=&quot;#000000&quot;&gt;Utente&lt;/font&gt;&lt;/u&gt;" style="shape=umlActor;verticalLabelPosition=bottom;verticalAlign=top;html=1;outlineConnect=0;fillColor=none;fontSize=14;fontColor=#0000CC;align=left;" parent="CQdg7doARLt-vxPC2LLc-1" vertex="1"><mxGeometry x="50" y="80" width="30" height="60" as="geometry"/></mxCell><mxCell id="jHzUtfri1Kk9_LL_Pwk0-0" value="" style="endArrow=none;dashed=1;html=1;dashPattern=1 3;strokeWidth=2;fontSize=14;fontColor=#0000CC;" parent="CQdg7doARLt-vxPC2LLc-1" edge="1"><mxGeometry width="50" height="50" relative="1" as="geometry"><mxPoint x="65" y="480" as="sourcePoint"/><mxPoint x="65" y="170" as="targetPoint"/></mxGeometry></mxCell><mxCell id="kzw8o5ljCFYOWvP23XiK-0" value="" style="endArrow=open;html=1;fontColor=#000000;endFill=0;" parent="CQdg7doARLt-vxPC2LLc-1" edge="1"><mxGeometry width="50" height="50" relative="1" as="geometry"><mxPoint x="70" y="180" as="sourcePoint"/><mxPoint x="329.5" y="180" as="targetPoint"/></mxGeometry></mxCell><mxCell id="kzw8o5ljCFYOWvP23XiK-1" value="&amp;lt;&amp;lt;create&amp;gt;&amp;gt;" style="edgeLabel;html=1;align=center;verticalAlign=middle;resizable=0;points=[];fontColor=#000000;" parent="kzw8o5ljCFYOWvP23XiK-0" vertex="1" connectable="0"><mxGeometry x="-0.4451" relative="1" as="geometry"><mxPoint x="8" y="-10" as="offset"/></mxGeometry></mxCell><mxCell id="1dlvMJWvUST6Cndw6tlz-0" value=":Interface" style="shape=umlLifeline;perimeter=lifelinePerimeter;container=1;collapsible=0;recursiveResize=0;rounded=0;shadow=0;strokeWidth=1;" parent="CQdg7doARLt-vxPC2LLc-1" vertex="1"><mxGeometry x="280" y="120" width="100" height="360" as="geometry"/></mxCell><mxCell id="1dlvMJWvUST6Cndw6tlz-1" value="" style="points=[];perimeter=orthogonalPerimeter;rounded=0;shadow=0;strokeWidth=1;" parent="1dlvMJWvUST6Cndw6tlz-0" vertex="1"><mxGeometry x="45" y="90" width="10" height="100" as="geometry"/></mxCell><mxCell id="1dlvMJWvUST6Cndw6tlz-2" value="" style="points=[];perimeter=orthogonalPerimeter;rounded=0;shadow=0;strokeWidth=1;" parent="1dlvMJWvUST6Cndw6tlz-0" vertex="1"><mxGeometry x="45" y="210" width="10" height="110" as="geometry"/></mxCell><mxCell id="cL4TDwWrCyU1nzeevS6B-0" value=":S.I." style="shape=umlLifeline;perimeter=lifelinePerimeter;container=1;collapsible=0;recursiveResize=0;rounded=0;shadow=0;strokeWidth=1;" parent="CQdg7doARLt-vxPC2LLc-1" vertex="1"><mxGeometry x="520" y="120" width="100" height="360" as="geometry"/></mxCell><mxCell id="cL4TDwWrCyU1nzeevS6B-1" value="" style="points=[];perimeter=orthogonalPerimeter;rounded=0;shadow=0;strokeWidth=1;" parent="cL4TDwWrCyU1nzeevS6B-0" vertex="1"><mxGeometry x="45" y="110" width="10" height="70" as="geometry"/></mxCell><mxCell id="cL4TDwWrCyU1nzeevS6B-2" value="" style="points=[];perimeter=orthogonalPerimeter;rounded=0;shadow=0;strokeWidth=1;" parent="cL4TDwWrCyU1nzeevS6B-0" vertex="1"><mxGeometry x="45" y="220" width="10" height="100" as="geometry"/></mxCell><mxCell id="MN08_oUwmegF-1oIaOJk-2" value="&lt;font color=&quot;#000000&quot;&gt;&lt;span style=&quot;font-size: 11px&quot;&gt;abrir vaga (data, hora)&lt;/span&gt;&lt;/font&gt;" style="endArrow=classic;html=1;fontSize=14;fontColor=#0000CC;entryX=1.1;entryY=1;entryDx=0;entryDy=0;entryPerimeter=0;" parent="cL4TDwWrCyU1nzeevS6B-0" target="9CEmBnxMuOfZZKKR-i-K-3" edge="1"><mxGeometry x="0.1247" y="54" width="50" height="50" relative="1" as="geometry"><mxPoint x="61" y="240" as="sourcePoint"/><mxPoint x="120" y="240" as="targetPoint"/><Array as="points"><mxPoint x="80" y="260"/><mxPoint x="80" y="260"/></Array><mxPoint x="25" y="-68" as="offset"/></mxGeometry></mxCell><mxCell id="9CEmBnxMuOfZZKKR-i-K-3" value="" style="points=[];perimeter=orthogonalPerimeter;rounded=0;shadow=0;strokeWidth=1;" parent="cL4TDwWrCyU1nzeevS6B-0" vertex="1"><mxGeometry x="50" y="240" width="10" height="30" as="geometry"/></mxCell><mxCell id="TrmfId_XVrWB3Mz8C-cY-0" value="fazer log in (nºutente)" style="verticalAlign=bottom;startArrow=none;endArrow=open;startSize=8;shadow=0;strokeWidth=1;endFill=0;startFill=0;" parent="CQdg7doARLt-vxPC2LLc-1" edge="1"><mxGeometry x="-0.1481" y="2" relative="1" as="geometry"><mxPoint x="70" y="210" as="sourcePoint"/><mxPoint x="325" y="210" as="targetPoint"/><mxPoint as="offset"/></mxGeometry></mxCell><mxCell id="GpNQNSTM2PT17M-fcsV3-0" value="" style="endArrow=open;html=1;fontColor=#000000;endFill=0;" parent="CQdg7doARLt-vxPC2LLc-1" edge="1"><mxGeometry width="50" height="50" relative="1" as="geometry"><mxPoint x="340" y="220" as="sourcePoint"/><mxPoint x="570" y="220" as="targetPoint"/></mxGeometry></mxCell><mxCell id="GpNQNSTM2PT17M-fcsV3-1" value="&amp;lt;&amp;lt;create&amp;gt;&amp;gt;" style="edgeLabel;html=1;align=center;verticalAlign=middle;resizable=0;points=[];fontColor=#000000;" parent="GpNQNSTM2PT17M-fcsV3-0" vertex="1" connectable="0"><mxGeometry x="-0.4451" relative="1" as="geometry"><mxPoint x="8" y="-10" as="offset"/></mxGeometry></mxCell><mxCell id="o2HZ4nPBebn1Wd7SygwV-0" value="procurar utilizador (nºutente)" style="verticalAlign=bottom;endArrow=classic;shadow=0;strokeWidth=1;edgeStyle=elbowEdgeStyle;endFill=1;" parent="CQdg7doARLt-vxPC2LLc-1" edge="1"><mxGeometry x="-0.1898" relative="1" as="geometry"><mxPoint x="340" y="250" as="sourcePoint"/><mxPoint x="560" y="250" as="targetPoint"/><Array as="points"><mxPoint x="445" y="250"/></Array><mxPoint as="offset"/></mxGeometry></mxCell><mxCell id="zNFLos63OBNuDbGb0vV_-0" style="edgeStyle=elbowEdgeStyle;rounded=0;orthogonalLoop=1;jettySize=auto;html=1;dashed=1;endArrow=open;endFill=0;" parent="CQdg7doARLt-vxPC2LLc-1" edge="1"><mxGeometry relative="1" as="geometry"><mxPoint x="560" y="270" as="sourcePoint"/><mxPoint x="340" y="270" as="targetPoint"/><Array as="points"><mxPoint x="450" y="270"/></Array></mxGeometry></mxCell><mxCell id="3dSI_u8vLwY14we7doA0-1" value="obter consultas marcadas ()" style="verticalAlign=bottom;endArrow=classic;shadow=0;strokeWidth=1;edgeStyle=elbowEdgeStyle;endFill=1;" parent="CQdg7doARLt-vxPC2LLc-1" edge="1"><mxGeometry x="-0.1898" relative="1" as="geometry"><mxPoint x="340" y="290" as="sourcePoint"/><mxPoint x="560" y="290" as="targetPoint"/><Array as="points"><mxPoint x="445" y="290"/></Array><mxPoint as="offset"/></mxGeometry></mxCell><mxCell id="3dSI_u8vLwY14we7doA0-2" style="edgeStyle=elbowEdgeStyle;rounded=0;orthogonalLoop=1;jettySize=auto;html=1;dashed=1;endArrow=open;endFill=0;" parent="CQdg7doARLt-vxPC2LLc-1" edge="1"><mxGeometry relative="1" as="geometry"><mxPoint x="560" y="300" as="sourcePoint"/><mxPoint x="340" y="300" as="targetPoint"/><Array as="points"><mxPoint x="450" y="300"/></Array></mxGeometry></mxCell><mxCell id="lLBswofoQxWhm6jlhfQv-0" value="escolher consulta (ID especialidade, data, hora)" style="verticalAlign=bottom;startArrow=none;endArrow=open;startSize=8;shadow=0;strokeWidth=1;endFill=0;startFill=0;" parent="CQdg7doARLt-vxPC2LLc-1" edge="1"><mxGeometry x="0.0196" relative="1" as="geometry"><mxPoint x="70" y="330" as="sourcePoint"/><mxPoint x="325" y="330" as="targetPoint"/><mxPoint as="offset"/></mxGeometry></mxCell><mxCell id="EEG8P0nE-3Rp7fU6OOeX-0" value="cancelar consulta (data, hora)" style="verticalAlign=bottom;endArrow=classic;shadow=0;strokeWidth=1;edgeStyle=elbowEdgeStyle;endFill=1;" parent="CQdg7doARLt-vxPC2LLc-1" edge="1"><mxGeometry x="-0.1898" relative="1" as="geometry"><mxPoint x="340" y="340" as="sourcePoint"/><mxPoint x="560" y="340" as="targetPoint"/><Array as="points"><mxPoint x="445" y="340"/></Array><mxPoint as="offset"/></mxGeometry></mxCell><mxCell id="JBaC88lEgMjEXhtah7vK-1" value="" style="endArrow=open;html=1;fontSize=14;fontColor=#0000CC;entryX=1.3;entryY=0.909;entryDx=0;entryDy=0;entryPerimeter=0;endFill=0;dashed=1;" parent="CQdg7doARLt-vxPC2LLc-1" source="cL4TDwWrCyU1nzeevS6B-2" target="1dlvMJWvUST6Cndw6tlz-2" edge="1"><mxGeometry width="50" height="50" relative="1" as="geometry"><mxPoint x="340" y="450" as="sourcePoint"/><mxPoint x="390" y="400" as="targetPoint"/></mxGeometry></mxCell><mxCell id="JBaC88lEgMjEXhtah7vK-2" value="&lt;u&gt;&lt;font color=&quot;#000000&quot;&gt;Médico&lt;/font&gt;&lt;/u&gt;" style="shape=umlActor;verticalLabelPosition=bottom;verticalAlign=top;html=1;outlineConnect=0;fillColor=none;fontSize=14;fontColor=#0000CC;align=left;" parent="CQdg7doARLt-vxPC2LLc-1" vertex="1"><mxGeometry x="50" y="510" width="30" height="60" as="geometry"/></mxCell><mxCell id="JBaC88lEgMjEXhtah7vK-3" value="" style="endArrow=none;dashed=1;html=1;dashPattern=1 3;strokeWidth=2;fontSize=14;fontColor=#0000CC;" parent="CQdg7doARLt-vxPC2LLc-1" edge="1"><mxGeometry width="50" height="50" relative="1" as="geometry"><mxPoint x="65" y="960" as="sourcePoint"/><mxPoint x="65" y="600" as="targetPoint"/></mxGeometry></mxCell><mxCell id="JBaC88lEgMjEXhtah7vK-4" value="" style="endArrow=open;html=1;fontColor=#000000;endFill=0;" parent="CQdg7doARLt-vxPC2LLc-1" edge="1"><mxGeometry width="50" height="50" relative="1" as="geometry"><mxPoint x="70" y="610" as="sourcePoint"/><mxPoint x="329.5" y="610" as="targetPoint"/></mxGeometry></mxCell><mxCell id="JBaC88lEgMjEXhtah7vK-5" value="&amp;lt;&amp;lt;create&amp;gt;&amp;gt;" style="edgeLabel;html=1;align=center;verticalAlign=middle;resizable=0;points=[];fontColor=#000000;" parent="JBaC88lEgMjEXhtah7vK-4" vertex="1" connectable="0"><mxGeometry x="-0.4451" relative="1" as="geometry"><mxPoint x="8" y="-10" as="offset"/></mxGeometry></mxCell><mxCell id="JBaC88lEgMjEXhtah7vK-6" value=":Interface" style="shape=umlLifeline;perimeter=lifelinePerimeter;container=1;collapsible=0;recursiveResize=0;rounded=0;shadow=0;strokeWidth=1;" parent="CQdg7doARLt-vxPC2LLc-1" vertex="1"><mxGeometry x="280" y="550" width="100" height="410" as="geometry"/></mxCell><mxCell id="JBaC88lEgMjEXhtah7vK-7" value="" style="points=[];perimeter=orthogonalPerimeter;rounded=0;shadow=0;strokeWidth=1;" parent="JBaC88lEgMjEXhtah7vK-6" vertex="1"><mxGeometry x="45" y="90" width="10" height="100" as="geometry"/></mxCell><mxCell id="JBaC88lEgMjEXhtah7vK-8" value="" style="points=[];perimeter=orthogonalPerimeter;rounded=0;shadow=0;strokeWidth=1;" parent="JBaC88lEgMjEXhtah7vK-6" vertex="1"><mxGeometry x="45" y="210" width="10" height="160" as="geometry"/></mxCell><mxCell id="JBaC88lEgMjEXhtah7vK-9" value=":S.I." style="shape=umlLifeline;perimeter=lifelinePerimeter;container=1;collapsible=0;recursiveResize=0;rounded=0;shadow=0;strokeWidth=1;" parent="CQdg7doARLt-vxPC2LLc-1" vertex="1"><mxGeometry x="520" y="550" width="110" height="410" as="geometry"/></mxCell><mxCell id="JBaC88lEgMjEXhtah7vK-10" value="" style="points=[];perimeter=orthogonalPerimeter;rounded=0;shadow=0;strokeWidth=1;" parent="JBaC88lEgMjEXhtah7vK-9" vertex="1"><mxGeometry x="50" y="110" width="10" height="70" as="geometry"/></mxCell><mxCell id="JBaC88lEgMjEXhtah7vK-11" value="" style="points=[];perimeter=orthogonalPerimeter;rounded=0;shadow=0;strokeWidth=1;" parent="JBaC88lEgMjEXhtah7vK-9" vertex="1"><mxGeometry x="50" y="220" width="10" height="150" as="geometry"/></mxCell><mxCell id="9CEmBnxMuOfZZKKR-i-K-0" value="" style="points=[];perimeter=orthogonalPerimeter;rounded=0;shadow=0;strokeWidth=1;" parent="JBaC88lEgMjEXhtah7vK-9" vertex="1"><mxGeometry x="55" y="240" width="10" height="30" as="geometry"/></mxCell><mxCell id="9CEmBnxMuOfZZKKR-i-K-2" value="&lt;font color=&quot;#000000&quot;&gt;&lt;span style=&quot;font-size: 11px&quot;&gt;registar impossibilidade &lt;br&gt;do médico (nota)&lt;/span&gt;&lt;/font&gt;" style="endArrow=classic;html=1;fontSize=14;fontColor=#0000CC;exitX=1;exitY=0.067;exitDx=0;exitDy=0;exitPerimeter=0;entryX=1;entryY=1;entryDx=0;entryDy=0;entryPerimeter=0;" parent="JBaC88lEgMjEXhtah7vK-9" source="9CEmBnxMuOfZZKKR-i-K-0" target="9CEmBnxMuOfZZKKR-i-K-0" edge="1"><mxGeometry x="-0.0171" y="56" width="50" height="50" relative="1" as="geometry"><mxPoint x="160" y="180" as="sourcePoint"/><mxPoint x="153" y="204.9000000000001" as="targetPoint"/><Array as="points"><mxPoint x="90" y="255"/></Array><mxPoint x="21" y="-73" as="offset"/></mxGeometry></mxCell><mxCell id="JBaC88lEgMjEXhtah7vK-14" value="fazer log in (ID_médico)" style="verticalAlign=bottom;startArrow=none;endArrow=open;startSize=8;shadow=0;strokeWidth=1;endFill=0;startFill=0;" parent="CQdg7doARLt-vxPC2LLc-1" edge="1"><mxGeometry x="-0.1481" y="2" relative="1" as="geometry"><mxPoint x="70" y="640" as="sourcePoint"/><mxPoint x="325" y="640" as="targetPoint"/><mxPoint as="offset"/></mxGeometry></mxCell><mxCell id="JBaC88lEgMjEXhtah7vK-15" value="" style="endArrow=open;html=1;fontColor=#000000;endFill=0;" parent="CQdg7doARLt-vxPC2LLc-1" edge="1"><mxGeometry width="50" height="50" relative="1" as="geometry"><mxPoint x="340" y="650" as="sourcePoint"/><mxPoint x="570" y="650" as="targetPoint"/></mxGeometry></mxCell><mxCell id="JBaC88lEgMjEXhtah7vK-16" value="&amp;lt;&amp;lt;create&amp;gt;&amp;gt;" style="edgeLabel;html=1;align=center;verticalAlign=middle;resizable=0;points=[];fontColor=#000000;" parent="JBaC88lEgMjEXhtah7vK-15" vertex="1" connectable="0"><mxGeometry x="-0.4451" relative="1" as="geometry"><mxPoint x="8" y="-10" as="offset"/></mxGeometry></mxCell><mxCell id="JBaC88lEgMjEXhtah7vK-17" value="procurar utilizador (ID_médico)" style="verticalAlign=bottom;endArrow=classic;shadow=0;strokeWidth=1;edgeStyle=elbowEdgeStyle;endFill=1;entryX=-0.4;entryY=0.314;entryDx=0;entryDy=0;entryPerimeter=0;" parent="CQdg7doARLt-vxPC2LLc-1" target="JBaC88lEgMjEXhtah7vK-10" edge="1"><mxGeometry x="-0.1898" relative="1" as="geometry"><mxPoint x="340" y="680" as="sourcePoint"/><mxPoint x="560" y="680" as="targetPoint"/><Array as="points"><mxPoint x="445" y="680"/></Array><mxPoint as="offset"/></mxGeometry></mxCell><mxCell id="JBaC88lEgMjEXhtah7vK-18" style="edgeStyle=elbowEdgeStyle;rounded=0;orthogonalLoop=1;jettySize=auto;html=1;dashed=1;endArrow=open;endFill=0;" parent="CQdg7doARLt-vxPC2LLc-1" edge="1"><mxGeometry relative="1" as="geometry"><mxPoint x="560" y="700" as="sourcePoint"/><mxPoint x="340" y="700" as="targetPoint"/><Array as="points"><mxPoint x="450" y="700"/></Array></mxGeometry></mxCell><mxCell id="JBaC88lEgMjEXhtah7vK-19" value="obter consultas marcadas ()" style="verticalAlign=bottom;endArrow=classic;shadow=0;strokeWidth=1;edgeStyle=elbowEdgeStyle;endFill=1;entryX=-0.3;entryY=0.871;entryDx=0;entryDy=0;entryPerimeter=0;" parent="CQdg7doARLt-vxPC2LLc-1" target="JBaC88lEgMjEXhtah7vK-10" edge="1"><mxGeometry x="-0.1898" relative="1" as="geometry"><mxPoint x="340" y="720" as="sourcePoint"/><mxPoint x="560" y="720" as="targetPoint"/><Array as="points"><mxPoint x="445" y="720"/></Array><mxPoint as="offset"/></mxGeometry></mxCell><mxCell id="JBaC88lEgMjEXhtah7vK-20" style="edgeStyle=elbowEdgeStyle;rounded=0;orthogonalLoop=1;jettySize=auto;html=1;dashed=1;endArrow=open;endFill=0;" parent="CQdg7doARLt-vxPC2LLc-1" edge="1"><mxGeometry relative="1" as="geometry"><mxPoint x="560" y="730" as="sourcePoint"/><mxPoint x="340" y="730" as="targetPoint"/><Array as="points"><mxPoint x="450" y="730"/></Array></mxGeometry></mxCell><mxCell id="JBaC88lEgMjEXhtah7vK-21" value="escolher consulta (data, hora)" style="verticalAlign=bottom;startArrow=none;endArrow=open;startSize=8;shadow=0;strokeWidth=1;endFill=0;startFill=0;" parent="CQdg7doARLt-vxPC2LLc-1" edge="1"><mxGeometry x="0.0196" relative="1" as="geometry"><mxPoint x="70" y="760" as="sourcePoint"/><mxPoint x="325" y="760" as="targetPoint"/><mxPoint as="offset"/></mxGeometry></mxCell><mxCell id="JBaC88lEgMjEXhtah7vK-22" value="cancelar consulta (data, hora)" style="verticalAlign=bottom;endArrow=classic;shadow=0;strokeWidth=1;edgeStyle=elbowEdgeStyle;endFill=1;" parent="CQdg7doARLt-vxPC2LLc-1" edge="1"><mxGeometry x="-0.1898" relative="1" as="geometry"><mxPoint x="340" y="770" as="sourcePoint"/><mxPoint x="560" y="770" as="targetPoint"/><Array as="points"><mxPoint x="445" y="770"/></Array><mxPoint as="offset"/></mxGeometry></mxCell><mxCell id="JBaC88lEgMjEXhtah7vK-23" value="" style="endArrow=open;html=1;fontSize=14;fontColor=#0000CC;entryX=1.3;entryY=0.909;entryDx=0;entryDy=0;entryPerimeter=0;endFill=0;dashed=1;" parent="CQdg7doARLt-vxPC2LLc-1" source="JBaC88lEgMjEXhtah7vK-11" target="JBaC88lEgMjEXhtah7vK-8" edge="1"><mxGeometry width="50" height="50" relative="1" as="geometry"><mxPoint x="340" y="880" as="sourcePoint"/><mxPoint x="390" y="830" as="targetPoint"/></mxGeometry></mxCell><mxCell id="a9h55BWwg8-qO3GUL-rg-0" value=":Lista de Espera" style="shape=umlLifeline;perimeter=lifelinePerimeter;container=1;collapsible=0;recursiveResize=0;rounded=0;shadow=0;strokeWidth=1;" parent="CQdg7doARLt-vxPC2LLc-1" vertex="1"><mxGeometry x="710" y="550" width="90" height="410" as="geometry"/></mxCell><mxCell id="a9h55BWwg8-qO3GUL-rg-1" value="" style="points=[];perimeter=orthogonalPerimeter;rounded=0;shadow=0;strokeWidth=1;" parent="a9h55BWwg8-qO3GUL-rg-0" vertex="1"><mxGeometry x="40" y="320" width="10" height="30" as="geometry"/></mxCell><mxCell id="FUsdzSrJhcS6MfnR7BcT-0" value="" style="endArrow=open;html=1;fontColor=#000000;endFill=0;exitX=1.2;exitY=0.045;exitDx=0;exitDy=0;exitPerimeter=0;" parent="CQdg7doARLt-vxPC2LLc-1" edge="1"><mxGeometry width="50" height="50" relative="1" as="geometry"><mxPoint x="580" y="830" as="sourcePoint"/><mxPoint x="750" y="830" as="targetPoint"/></mxGeometry></mxCell><mxCell id="FUsdzSrJhcS6MfnR7BcT-1" value="&amp;lt;&amp;lt;create&amp;gt;&amp;gt;" style="edgeLabel;html=1;align=center;verticalAlign=middle;resizable=0;points=[];fontColor=#000000;" parent="FUsdzSrJhcS6MfnR7BcT-0" vertex="1" connectable="0"><mxGeometry x="-0.4451" relative="1" as="geometry"><mxPoint x="8" y="-10" as="offset"/></mxGeometry></mxCell><mxCell id="FAasVTULk0MUbPuoeqvA-1" value="" style="endArrow=classic;html=1;fontSize=14;fontColor=#0000CC;entryX=0;entryY=0.2;entryDx=0;entryDy=0;entryPerimeter=0;" parent="CQdg7doARLt-vxPC2LLc-1" target="a9h55BWwg8-qO3GUL-rg-1" edge="1"><mxGeometry width="50" height="50" relative="1" as="geometry"><mxPoint x="580" y="876" as="sourcePoint"/><mxPoint x="660" y="870" as="targetPoint"/></mxGeometry></mxCell><mxCell id="FAasVTULk0MUbPuoeqvA-2" value="&lt;span style=&quot;color: rgb(0 , 0 , 0) ; font-size: 11px&quot;&gt;adicionar à lista de&amp;nbsp;espera&lt;/span&gt;&lt;br style=&quot;padding: 0px ; margin: 0px ; color: rgb(0 , 0 , 0) ; font-size: 11px&quot;&gt;&lt;span style=&quot;color: rgb(0 , 0 , 0) ; font-size: 11px&quot;&gt;&amp;nbsp;(nºutente, ID:especialidade)&lt;/span&gt;" style="edgeLabel;html=1;align=center;verticalAlign=middle;resizable=0;points=[];fontSize=14;fontColor=#0000CC;" parent="FAasVTULk0MUbPuoeqvA-1" vertex="1" connectable="0"><mxGeometry x="0.2706" relative="1" as="geometry"><mxPoint x="-28" y="-26" as="offset"/></mxGeometry></mxCell><mxCell id="FAasVTULk0MUbPuoeqvA-3" value="" style="endArrow=open;html=1;fontSize=14;fontColor=#0000CC;exitX=-0.2;exitY=0.933;exitDx=0;exitDy=0;exitPerimeter=0;dashed=1;endFill=0;" parent="CQdg7doARLt-vxPC2LLc-1" source="a9h55BWwg8-qO3GUL-rg-1" edge="1"><mxGeometry width="50" height="50" relative="1" as="geometry"><mxPoint x="400" y="810" as="sourcePoint"/><mxPoint x="580" y="898" as="targetPoint"/></mxGeometry></mxCell><mxCell id="9CEmBnxMuOfZZKKR-i-K-4" value="" style="points=[];perimeter=orthogonalPerimeter;rounded=0;shadow=0;strokeWidth=1;" parent="CQdg7doARLt-vxPC2LLc-1" vertex="1"><mxGeometry x="570" y="400" width="10" height="30" as="geometry"/></mxCell><mxCell id="CnfjWErCILpYxdEy-Enq-1" value="&lt;font color=&quot;#000000&quot;&gt;&lt;span style=&quot;font-size: 11px&quot;&gt;registar desistência&amp;nbsp;do utente (nota)&lt;/span&gt;&lt;/font&gt;" style="endArrow=classic;html=1;fontSize=14;fontColor=#0000CC;exitX=0.8;exitY=0;exitDx=0;exitDy=0;exitPerimeter=0;entryX=1.3;entryY=0.9;entryDx=0;entryDy=0;entryPerimeter=0;" parent="CQdg7doARLt-vxPC2LLc-1" source="9CEmBnxMuOfZZKKR-i-K-4" target="cL4TDwWrCyU1nzeevS6B-2" edge="1"><mxGeometry x="0.1033" y="82" width="50" height="50" relative="1" as="geometry"><mxPoint x="600" y="410" as="sourcePoint"/><mxPoint x="578" y="430" as="targetPoint"/><Array as="points"><mxPoint x="600" y="420"/></Array><mxPoint x="46" y="-95" as="offset"/></mxGeometry></mxCell></root></mxGraphModel></diagram><diagram name="Check-in manual e automático" id="iNOtwk98jL5y1aLxmDdM"><mxGraphModel dx="454" dy="210" grid="1" gridSize="10" guides="1" tooltips="1" connect="1" arrows="1" fold="1" page="1" pageScale="1" pageWidth="850" pageHeight="1100" math="0" shadow="0"><root><mxCell id="0"/><mxCell id="1" parent="0"/><mxCell id="-BDYKptoFTLzLaDUTOg9-4" value="«create»" style="endArrow=classic;html=1;strokeWidth=1;entryX=0.529;entryY=0.277;entryDx=0;entryDy=0;entryPerimeter=0;" parent="1" source="m903mOmpjXKeaSWjuPWx-12" target="m903mOmpjXKeaSWjuPWx-16" edge="1"><mxGeometry width="50" height="50" relative="1" as="geometry"><mxPoint x="370" y="652" as="sourcePoint"/><mxPoint x="526.5" y="630" as="targetPoint"/></mxGeometry></mxCell><mxCell id="3nuBFxr9cyL0pnOWT2aG-5" value=": Leitor de cartões" style="shape=umlLifeline;perimeter=lifelinePerimeter;container=1;collapsible=0;recursiveResize=0;rounded=0;shadow=0;strokeWidth=1;" parent="1" vertex="1"><mxGeometry x="290" y="170" width="100" height="300" as="geometry"/></mxCell><mxCell id="3nuBFxr9cyL0pnOWT2aG-6" value="" style="points=[];perimeter=orthogonalPerimeter;rounded=0;shadow=0;strokeWidth=1;" parent="3nuBFxr9cyL0pnOWT2aG-5" vertex="1"><mxGeometry x="45" y="80" width="10" height="80" as="geometry"/></mxCell><mxCell id="3nuBFxr9cyL0pnOWT2aG-8" value="passarCartão()" style="verticalAlign=bottom;endArrow=block;entryX=0;entryY=0;shadow=0;strokeWidth=1;exitX=0.49;exitY=0.267;exitDx=0;exitDy=0;exitPerimeter=0;" parent="1" target="3nuBFxr9cyL0pnOWT2aG-6" edge="1"><mxGeometry relative="1" as="geometry"><mxPoint x="159" y="250.10000000000002" as="sourcePoint"/></mxGeometry></mxCell><mxCell id="3nuBFxr9cyL0pnOWT2aG-10" value="entregaSenha()" style="verticalAlign=bottom;endArrow=open;dashed=1;endSize=8;shadow=0;strokeWidth=1;" parent="1" edge="1"><mxGeometry relative="1" as="geometry"><mxPoint x="159.5" y="330" as="targetPoint"/><mxPoint x="330" y="330" as="sourcePoint"/></mxGeometry></mxCell><mxCell id="m903mOmpjXKeaSWjuPWx-2" value=": Sistema &#10;Informático" style="shape=umlLifeline;perimeter=lifelinePerimeter;container=1;collapsible=0;recursiveResize=0;rounded=0;shadow=0;strokeWidth=1;" parent="1" vertex="1"><mxGeometry x="470" y="170" width="110" height="300" as="geometry"/></mxCell><mxCell id="m903mOmpjXKeaSWjuPWx-3" value="" style="points=[];perimeter=orthogonalPerimeter;rounded=0;shadow=0;strokeWidth=1;" parent="m903mOmpjXKeaSWjuPWx-2" vertex="1"><mxGeometry x="50" y="100" width="10" height="60" as="geometry"/></mxCell><mxCell id="m903mOmpjXKeaSWjuPWx-4" value="registarHoraEntrada()" style="verticalAlign=bottom;endArrow=block;shadow=0;strokeWidth=1;" parent="1" edge="1"><mxGeometry x="0.0405" y="-10" relative="1" as="geometry"><mxPoint x="347" y="270" as="sourcePoint"/><mxPoint x="520" y="270" as="targetPoint"/><Array as="points"><mxPoint x="437" y="270"/></Array><mxPoint as="offset"/></mxGeometry></mxCell><mxCell id="m903mOmpjXKeaSWjuPWx-5" value="impressaoSenha()" style="verticalAlign=bottom;endArrow=open;dashed=1;endSize=8;exitX=-0.2;exitY=0.986;shadow=0;strokeWidth=1;exitDx=0;exitDy=0;exitPerimeter=0;" parent="1" source="m903mOmpjXKeaSWjuPWx-3" target="3nuBFxr9cyL0pnOWT2aG-6" edge="1"><mxGeometry relative="1" as="geometry"><mxPoint x="350" y="319" as="targetPoint"/><mxPoint x="520" y="300" as="sourcePoint"/></mxGeometry></mxCell><mxCell id="m903mOmpjXKeaSWjuPWx-6" value="Utente" style="shape=umlActor;verticalLabelPosition=bottom;verticalAlign=top;html=1;" parent="1" vertex="1"><mxGeometry x="145" y="121" width="30" height="60" as="geometry"/></mxCell><mxCell id="m903mOmpjXKeaSWjuPWx-8" value="" style="endArrow=none;dashed=1;html=1;" parent="1" edge="1"><mxGeometry width="50" height="50" relative="1" as="geometry"><mxPoint x="160" y="470" as="sourcePoint"/><mxPoint x="160" y="210" as="targetPoint"/><Array as="points"/></mxGeometry></mxCell><mxCell id="m903mOmpjXKeaSWjuPWx-12" value=": Recepcionista" style="shape=umlLifeline;perimeter=lifelinePerimeter;container=1;collapsible=0;recursiveResize=0;rounded=0;shadow=0;strokeWidth=1;" parent="1" vertex="1"><mxGeometry x="290" y="569" width="100" height="300" as="geometry"/></mxCell><mxCell id="m903mOmpjXKeaSWjuPWx-13" value="" style="points=[];perimeter=orthogonalPerimeter;rounded=0;shadow=0;strokeWidth=1;" parent="m903mOmpjXKeaSWjuPWx-12" vertex="1"><mxGeometry x="45" y="80" width="10" height="80" as="geometry"/></mxCell><mxCell id="m903mOmpjXKeaSWjuPWx-14" value="darEntradaAoBalcão()" style="verticalAlign=bottom;endArrow=block;entryX=0;entryY=0;shadow=0;strokeWidth=1;exitX=0.49;exitY=0.267;exitDx=0;exitDy=0;exitPerimeter=0;" parent="1" target="m903mOmpjXKeaSWjuPWx-13" edge="1"><mxGeometry relative="1" as="geometry"><mxPoint x="159" y="649.1" as="sourcePoint"/></mxGeometry></mxCell><mxCell id="m903mOmpjXKeaSWjuPWx-15" value="entregaSenha()" style="verticalAlign=bottom;endArrow=open;dashed=1;endSize=8;shadow=0;strokeWidth=1;" parent="1" edge="1"><mxGeometry relative="1" as="geometry"><mxPoint x="159.5" y="729" as="targetPoint"/><mxPoint x="330" y="729" as="sourcePoint"/></mxGeometry></mxCell><mxCell id="m903mOmpjXKeaSWjuPWx-16" value=": Sistema &#10;Informático" style="shape=umlLifeline;perimeter=lifelinePerimeter;container=1;collapsible=0;recursiveResize=0;rounded=0;shadow=0;strokeWidth=1;" parent="1" vertex="1"><mxGeometry x="470" y="569" width="110" height="300" as="geometry"/></mxCell><mxCell id="m903mOmpjXKeaSWjuPWx-17" value="" style="points=[];perimeter=orthogonalPerimeter;rounded=0;shadow=0;strokeWidth=1;" parent="m903mOmpjXKeaSWjuPWx-16" vertex="1"><mxGeometry x="50" y="101" width="10" height="59" as="geometry"/></mxCell><mxCell id="m903mOmpjXKeaSWjuPWx-18" value="registarHoraEntrada()" style="verticalAlign=bottom;endArrow=block;shadow=0;strokeWidth=1;entryX=0.112;entryY=0.029;entryDx=0;entryDy=0;entryPerimeter=0;" parent="1" target="m903mOmpjXKeaSWjuPWx-17" edge="1"><mxGeometry x="-0.0456" y="-9" relative="1" as="geometry"><mxPoint x="347" y="670" as="sourcePoint"/><mxPoint x="520" y="660" as="targetPoint"/><Array as="points"/><mxPoint as="offset"/></mxGeometry></mxCell><mxCell id="m903mOmpjXKeaSWjuPWx-19" value="impressaoSenha()" style="verticalAlign=bottom;endArrow=open;dashed=1;endSize=8;exitX=-0.2;exitY=0.986;shadow=0;strokeWidth=1;exitDx=0;exitDy=0;exitPerimeter=0;" parent="1" source="m903mOmpjXKeaSWjuPWx-17" target="m903mOmpjXKeaSWjuPWx-13" edge="1"><mxGeometry relative="1" as="geometry"><mxPoint x="350" y="718" as="targetPoint"/><mxPoint x="520" y="699" as="sourcePoint"/></mxGeometry></mxCell><mxCell id="m903mOmpjXKeaSWjuPWx-20" value="Utente" style="shape=umlActor;verticalLabelPosition=bottom;verticalAlign=top;html=1;" parent="1" vertex="1"><mxGeometry x="145" y="520" width="30" height="60" as="geometry"/></mxCell><mxCell id="m903mOmpjXKeaSWjuPWx-21" value="" style="endArrow=none;dashed=1;html=1;" parent="1" edge="1"><mxGeometry width="50" height="50" relative="1" as="geometry"><mxPoint x="160" y="869" as="sourcePoint"/><mxPoint x="160" y="609" as="targetPoint"/><Array as="points"/></mxGeometry></mxCell><mxCell id="-BDYKptoFTLzLaDUTOg9-1" value="«create»" style="endArrow=classic;html=1;strokeWidth=1;" parent="1" target="3nuBFxr9cyL0pnOWT2aG-5" edge="1"><mxGeometry width="50" height="50" relative="1" as="geometry"><mxPoint x="160" y="230" as="sourcePoint"/><mxPoint x="309.5" y="230" as="targetPoint"/></mxGeometry></mxCell><mxCell id="-BDYKptoFTLzLaDUTOg9-2" value="«create»" style="endArrow=classic;html=1;strokeWidth=1;entryX=0.515;entryY=0.271;entryDx=0;entryDy=0;entryPerimeter=0;exitX=0.9;exitY=0.013;exitDx=0;exitDy=0;exitPerimeter=0;" parent="1" source="3nuBFxr9cyL0pnOWT2aG-6" target="m903mOmpjXKeaSWjuPWx-2" edge="1"><mxGeometry width="50" height="50" relative="1" as="geometry"><mxPoint x="340" y="240" as="sourcePoint"/><mxPoint x="519.5" y="240" as="targetPoint"/></mxGeometry></mxCell><mxCell id="-BDYKptoFTLzLaDUTOg9-3" value="«create»" style="endArrow=classic;html=1;strokeWidth=1;" parent="1" edge="1"><mxGeometry width="50" height="50" relative="1" as="geometry"><mxPoint x="160" y="620" as="sourcePoint"/><mxPoint x="339.5" y="620" as="targetPoint"/></mxGeometry></mxCell><mxCell id="KicULBHtDjvTNF4SDE6R-1" value="Diagrama de Sequência - Check-in" style="rounded=0;whiteSpace=wrap;html=1;fontColor=#0000CC;" parent="1" vertex="1"><mxGeometry x="200" y="70" width="380" height="30" as="geometry"/></mxCell></root></mxGraphModel></diagram><diagram name="Gestão consulta" id="tOvqANhotFiYs4yBPXNq"><mxGraphModel dx="454" dy="210" grid="1" gridSize="10" guides="1" tooltips="1" connect="1" arrows="1" fold="1" page="1" pageScale="1" pageWidth="827" pageHeight="1169" math="0" shadow="0"><root><mxCell id="YWq5WGcZyo5m1Z9Z-Msd-0"/><mxCell id="YWq5WGcZyo5m1Z9Z-Msd-1" parent="YWq5WGcZyo5m1Z9Z-Msd-0"/><mxCell id="XHDiFYzcqxBf6EsyGbic-35" value="option" style="shape=umlFrame;whiteSpace=wrap;html=1;strokeColor=#000000;fillColor=none;" parent="YWq5WGcZyo5m1Z9Z-Msd-1" vertex="1"><mxGeometry x="50" y="280" width="590" height="670" as="geometry"/></mxCell><mxCell id="XHDiFYzcqxBf6EsyGbic-0" value="alt" style="shape=umlFrame;tabWidth=110;tabHeight=30;tabPosition=left;html=1;boundedLbl=1;labelInHeader=1;width=140;height=30;strokeColor=#000000;fillColor=none;" parent="YWq5WGcZyo5m1Z9Z-Msd-1" vertex="1"><mxGeometry x="80" y="360" width="546" height="570" as="geometry"/></mxCell><mxCell id="XHDiFYzcqxBf6EsyGbic-37" value="option" style="shape=umlFrame;whiteSpace=wrap;html=1;strokeColor=#000000;fillColor=none;" parent="XHDiFYzcqxBf6EsyGbic-0" vertex="1"><mxGeometry x="10" y="248.15" width="302.88" height="221.85" as="geometry"/></mxCell><mxCell id="zi7IREmBIkFgJ-pXZrqR-6" value="" style="rounded=0;whiteSpace=wrap;html=1;strokeColor=#000000;fillColor=#FFFFFF;" parent="XHDiFYzcqxBf6EsyGbic-0" vertex="1"><mxGeometry x="226" y="78.58" width="10" height="71.42" as="geometry"/></mxCell><mxCell id="XHDiFYzcqxBf6EsyGbic-1" value="[tempo de espera &lt; tempo de tolerância]" style="text" parent="XHDiFYzcqxBf6EsyGbic-0" vertex="1"><mxGeometry width="250" height="20" relative="1" as="geometry"><mxPoint x="20" y="30" as="offset"/></mxGeometry></mxCell><mxCell id="XHDiFYzcqxBf6EsyGbic-2" value="" style="line;strokeWidth=1;dashed=1;labelPosition=center;verticalLabelPosition=bottom;align=left;verticalAlign=top;spacingLeft=20;spacingTop=15;" parent="XHDiFYzcqxBf6EsyGbic-0" vertex="1"><mxGeometry y="162.25037257824144" width="546" height="22.8" as="geometry"/></mxCell><mxCell id="XHDiFYzcqxBf6EsyGbic-11" value="" style="endArrow=block;endFill=1;endSize=6;html=1;entryX=0;entryY=1;entryDx=0;entryDy=0;" parent="XHDiFYzcqxBf6EsyGbic-0" edge="1"><mxGeometry width="100" relative="1" as="geometry"><mxPoint x="80" y="80" as="sourcePoint"/><mxPoint x="225" y="80" as="targetPoint"/></mxGeometry></mxCell><mxCell id="XHDiFYzcqxBf6EsyGbic-12" value="realizarConsulta()" style="edgeLabel;html=1;align=center;verticalAlign=middle;resizable=0;points=[];" parent="XHDiFYzcqxBf6EsyGbic-11" vertex="1" connectable="0"><mxGeometry x="0.7124" relative="1" as="geometry"><mxPoint x="-53.78" y="-10" as="offset"/></mxGeometry></mxCell><mxCell id="XHDiFYzcqxBf6EsyGbic-14" value="" style="verticalAlign=bottom;endArrow=open;dashed=1;endSize=8;shadow=0;strokeWidth=1;exitX=0.175;exitY=1.1;exitDx=0;exitDy=0;exitPerimeter=0;" parent="XHDiFYzcqxBf6EsyGbic-0" edge="1"><mxGeometry relative="1" as="geometry"><mxPoint x="80" y="94" as="targetPoint"/><mxPoint x="224" y="94" as="sourcePoint"/><Array as="points"/></mxGeometry></mxCell><mxCell id="XHDiFYzcqxBf6EsyGbic-18" value="" style="verticalAlign=bottom;endArrow=open;dashed=1;endSize=8;shadow=0;strokeWidth=1;exitX=1;exitY=1;exitDx=0;exitDy=0;" parent="XHDiFYzcqxBf6EsyGbic-0" edge="1"><mxGeometry relative="1" as="geometry"><mxPoint x="80" y="150" as="targetPoint"/><mxPoint x="226.00188679245272" y="150.25098184418437" as="sourcePoint"/></mxGeometry></mxCell><mxCell id="XHDiFYzcqxBf6EsyGbic-38" value="[aceita utente]" style="text" parent="XHDiFYzcqxBf6EsyGbic-0" vertex="1"><mxGeometry x="32.66867924528301" y="274.24604926468515" width="257.5471698113207" height="21.50943396226415" as="geometry"/></mxCell><mxCell id="XHDiFYzcqxBf6EsyGbic-41" value="" style="endArrow=block;endFill=1;endSize=6;html=1;entryX=0;entryY=1;entryDx=0;entryDy=0;" parent="XHDiFYzcqxBf6EsyGbic-0" target="XHDiFYzcqxBf6EsyGbic-49" edge="1"><mxGeometry width="100" relative="1" as="geometry"><mxPoint x="80" y="360" as="sourcePoint"/><mxPoint x="160.70943396226414" y="334.4716981132076" as="targetPoint"/></mxGeometry></mxCell><mxCell id="XHDiFYzcqxBf6EsyGbic-42" value="realizarConsulta()" style="edgeLabel;html=1;align=center;verticalAlign=middle;resizable=0;points=[];" parent="XHDiFYzcqxBf6EsyGbic-41" vertex="1" connectable="0"><mxGeometry x="0.7124" relative="1" as="geometry"><mxPoint x="-53.78" y="-10" as="offset"/></mxGeometry></mxCell><mxCell id="XHDiFYzcqxBf6EsyGbic-44" value="" style="verticalAlign=bottom;endArrow=open;dashed=1;endSize=8;shadow=0;strokeWidth=1;" parent="XHDiFYzcqxBf6EsyGbic-0" edge="1"><mxGeometry relative="1" as="geometry"><mxPoint x="79.38" y="370" as="targetPoint"/><mxPoint x="219.38" y="370" as="sourcePoint"/><Array as="points"/></mxGeometry></mxCell><mxCell id="XHDiFYzcqxBf6EsyGbic-46" value="" style="endArrow=block;endFill=1;endSize=6;html=1;entryX=0.6;entryY=0.933;entryDx=0;entryDy=0;entryPerimeter=0;" parent="XHDiFYzcqxBf6EsyGbic-0" target="XHDiFYzcqxBf6EsyGbic-49" edge="1"><mxGeometry width="100" relative="1" as="geometry"><mxPoint x="80" y="408" as="sourcePoint"/><mxPoint x="170.49622641509433" y="374.6172598787843" as="targetPoint"/></mxGeometry></mxCell><mxCell id="XHDiFYzcqxBf6EsyGbic-47" value="terminarConsulta()" style="edgeLabel;html=1;align=center;verticalAlign=middle;resizable=0;points=[];" parent="XHDiFYzcqxBf6EsyGbic-46" vertex="1" connectable="0"><mxGeometry x="0.7124" relative="1" as="geometry"><mxPoint x="-53.78" y="-10" as="offset"/></mxGeometry></mxCell><mxCell id="eqoXr3fQrSw58jxvnbBV-2" value="" style="endArrow=block;endFill=1;endSize=6;html=1;entryX=0;entryY=1;entryDx=0;entryDy=0;" parent="XHDiFYzcqxBf6EsyGbic-0" edge="1"><mxGeometry width="100" relative="1" as="geometry"><mxPoint x="76.62301886792453" y="224.9985777914315" as="sourcePoint"/><mxPoint x="226.00037735849054" y="224.9985777914315" as="targetPoint"/></mxGeometry></mxCell><mxCell id="eqoXr3fQrSw58jxvnbBV-3" value="registarFaltaComparência()" style="edgeLabel;html=1;align=center;verticalAlign=middle;resizable=0;points=[];" parent="eqoXr3fQrSw58jxvnbBV-2" vertex="1" connectable="0"><mxGeometry x="0.7124" relative="1" as="geometry"><mxPoint x="-53.78" y="-10" as="offset"/></mxGeometry></mxCell><mxCell id="eqoXr3fQrSw58jxvnbBV-4" value="" style="verticalAlign=bottom;endArrow=open;dashed=1;endSize=8;shadow=0;strokeWidth=1;exitX=1;exitY=1;exitDx=0;exitDy=0;" parent="XHDiFYzcqxBf6EsyGbic-0" edge="1"><mxGeometry relative="1" as="geometry"><mxPoint x="76.62301886792453" y="238.69936350225757" as="targetPoint"/><mxPoint x="226.00037735849054" y="238.69936350225757" as="sourcePoint"/><Array as="points"><mxPoint x="148.73622641509434" y="238.7762623645141"/></Array></mxGeometry></mxCell><mxCell id="eqoXr3fQrSw58jxvnbBV-6" value="[tempo de espera &gt; tempo de tolerância]" style="text" parent="XHDiFYzcqxBf6EsyGbic-0" vertex="1"><mxGeometry x="20.60377358490566" y="179.23994038748137" width="257.5471698113207" height="16.98956780923994" as="geometry"/></mxCell><mxCell id="eqoXr3fQrSw58jxvnbBV-10" value="" style="endArrow=block;endFill=1;endSize=6;html=1;entryX=0;entryY=0.75;entryDx=0;entryDy=0;" parent="XHDiFYzcqxBf6EsyGbic-0" target="eqoXr3fQrSw58jxvnbBV-12" edge="1"><mxGeometry width="100" relative="1" as="geometry"><mxPoint x="77" y="320" as="sourcePoint"/><mxPoint x="226.00037735849054" y="309.9990248853213" as="targetPoint"/></mxGeometry></mxCell><mxCell id="eqoXr3fQrSw58jxvnbBV-11" value="removerFaltaComparência()" style="edgeLabel;html=1;align=center;verticalAlign=middle;resizable=0;points=[];" parent="eqoXr3fQrSw58jxvnbBV-10" vertex="1" connectable="0"><mxGeometry x="0.7124" relative="1" as="geometry"><mxPoint x="-54.32" y="-10" as="offset"/></mxGeometry></mxCell><mxCell id="eqoXr3fQrSw58jxvnbBV-14" value="" style="verticalAlign=bottom;endArrow=open;dashed=1;endSize=8;shadow=0;strokeWidth=1;exitX=1;exitY=1;exitDx=0;exitDy=0;" parent="XHDiFYzcqxBf6EsyGbic-0" edge="1"><mxGeometry relative="1" as="geometry"><mxPoint x="76.62301886792453" y="330.0024186438373" as="targetPoint"/><mxPoint x="226.00037735849054" y="330.0024186438373" as="sourcePoint"/><Array as="points"><mxPoint x="148.73622641509434" y="330.0793175060939"/></Array></mxGeometry></mxCell><mxCell id="eqoXr3fQrSw58jxvnbBV-39" value="&lt;span style=&quot;font-size: 11px ; background-color: rgb(255 , 255 , 255)&quot;&gt;registaHoraFimConsulta()&lt;/span&gt;" style="text;html=1;align=center;verticalAlign=middle;resizable=0;points=[];autosize=1;" parent="XHDiFYzcqxBf6EsyGbic-0" vertex="1"><mxGeometry x="249.9950943396226" y="90.00010432190761" width="140" height="20" as="geometry"/></mxCell><mxCell id="XHDiFYzcqxBf6EsyGbic-16" value="" style="endArrow=block;endFill=1;endSize=6;html=1;entryX=0.675;entryY=1.1;entryDx=0;entryDy=0;entryPerimeter=0;" parent="XHDiFYzcqxBf6EsyGbic-0" edge="1"><mxGeometry width="100" relative="1" as="geometry"><mxPoint x="79" y="134" as="sourcePoint"/><mxPoint x="224" y="134" as="targetPoint"/></mxGeometry></mxCell><mxCell id="XHDiFYzcqxBf6EsyGbic-17" value="terminarConsulta()" style="edgeLabel;html=1;align=center;verticalAlign=middle;resizable=0;points=[];" parent="XHDiFYzcqxBf6EsyGbic-16" vertex="1" connectable="0"><mxGeometry x="0.7124" relative="1" as="geometry"><mxPoint x="-53.78" y="-10" as="offset"/></mxGeometry></mxCell><mxCell id="eqoXr3fQrSw58jxvnbBV-40" value="" style="endArrow=block;endFill=1;endSize=6;html=1;exitX=0.25;exitY=0;exitDx=0;exitDy=0;entryX=0.75;entryY=0;entryDx=0;entryDy=0;" parent="XHDiFYzcqxBf6EsyGbic-0" source="zi7IREmBIkFgJ-pXZrqR-10" target="zi7IREmBIkFgJ-pXZrqR-10" edge="1"><mxGeometry width="100" relative="1" as="geometry"><mxPoint x="250" y="102.61865793780687" as="sourcePoint"/><mxPoint x="260" y="121.27659574468085" as="targetPoint"/><Array as="points"><mxPoint x="260" y="103"/></Array></mxGeometry></mxCell><mxCell id="eqoXr3fQrSw58jxvnbBV-41" value="&lt;span style=&quot;font-size: 11px ; background-color: rgb(255 , 255 , 255)&quot;&gt;registaHoraFimConsulta()&lt;/span&gt;" style="text;html=1;align=center;verticalAlign=middle;resizable=0;points=[];autosize=1;" parent="XHDiFYzcqxBf6EsyGbic-0" vertex="1"><mxGeometry x="240.00320754716978" y="399.9961567731188" width="140" height="20" as="geometry"/></mxCell><mxCell id="zi7IREmBIkFgJ-pXZrqR-10" value="" style="rounded=0;whiteSpace=wrap;html=1;direction=south;" parent="XHDiFYzcqxBf6EsyGbic-0" vertex="1"><mxGeometry x="230" y="100" width="10" height="24.33" as="geometry"/></mxCell><mxCell id="YWq5WGcZyo5m1Z9Z-Msd-3" value=": Sistema Informático" style="shape=umlLifeline;perimeter=lifelinePerimeter;whiteSpace=wrap;html=1;container=1;collapsible=0;recursiveResize=0;outlineConnect=0;strokeColor=#000000;fillColor=none;" parent="YWq5WGcZyo5m1Z9Z-Msd-1" vertex="1"><mxGeometry x="260" y="120" width="100" height="980" as="geometry"/></mxCell><mxCell id="XHDiFYzcqxBf6EsyGbic-49" value="" style="rounded=0;whiteSpace=wrap;html=1;direction=south;" parent="YWq5WGcZyo5m1Z9Z-Msd-3" vertex="1"><mxGeometry x="45" y="600" width="10" height="80" as="geometry"/></mxCell><mxCell id="SYRSoSL9QByiTBSLftoJ-2" value="" style="rounded=0;whiteSpace=wrap;html=1;direction=south;" parent="YWq5WGcZyo5m1Z9Z-Msd-3" vertex="1"><mxGeometry x="45" y="70" width="10" height="70" as="geometry"/></mxCell><mxCell id="XHDiFYzcqxBf6EsyGbic-19" style="edgeStyle=orthogonalEdgeStyle;rounded=0;orthogonalLoop=1;jettySize=auto;html=1;exitX=1;exitY=0.5;exitDx=0;exitDy=0;" parent="YWq5WGcZyo5m1Z9Z-Msd-3" edge="1"><mxGeometry relative="1" as="geometry"><mxPoint x="50" y="400" as="sourcePoint"/><mxPoint x="50" y="400" as="targetPoint"/></mxGeometry></mxCell><mxCell id="eqoXr3fQrSw58jxvnbBV-5" value="" style="rounded=0;whiteSpace=wrap;html=1;direction=south;" parent="YWq5WGcZyo5m1Z9Z-Msd-3" vertex="1"><mxGeometry x="45" y="465" width="10" height="15" as="geometry"/></mxCell><mxCell id="eqoXr3fQrSw58jxvnbBV-12" value="" style="rounded=0;whiteSpace=wrap;html=1;direction=south;" parent="YWq5WGcZyo5m1Z9Z-Msd-3" vertex="1"><mxGeometry x="45" y="560" width="10" height="20.32" as="geometry"/></mxCell><mxCell id="eqoXr3fQrSw58jxvnbBV-26" value="" style="rounded=0;whiteSpace=wrap;html=1;direction=south;" parent="YWq5WGcZyo5m1Z9Z-Msd-3" vertex="1"><mxGeometry x="50" y="115" width="10" height="20" as="geometry"/></mxCell><mxCell id="eqoXr3fQrSw58jxvnbBV-28" value="" style="endArrow=block;endFill=1;endSize=6;html=1;exitX=0.25;exitY=0;exitDx=0;exitDy=0;entryX=0.75;entryY=0;entryDx=0;entryDy=0;" parent="YWq5WGcZyo5m1Z9Z-Msd-3" source="eqoXr3fQrSw58jxvnbBV-26" target="eqoXr3fQrSw58jxvnbBV-26" edge="1"><mxGeometry width="100" relative="1" as="geometry"><mxPoint x="70" y="120" as="sourcePoint"/><mxPoint x="110" y="120" as="targetPoint"/><Array as="points"><mxPoint x="80" y="120"/></Array></mxGeometry></mxCell><mxCell id="eqoXr3fQrSw58jxvnbBV-18" value="option" style="shape=umlFrame;whiteSpace=wrap;html=1;strokeColor=#000000;fillColor=none;" parent="YWq5WGcZyo5m1Z9Z-Msd-1" vertex="1"><mxGeometry x="50" y="960" width="580" height="140" as="geometry"/></mxCell><mxCell id="YWq5WGcZyo5m1Z9Z-Msd-4" value=": Ecrã Sala de Espera" style="shape=umlLifeline;perimeter=lifelinePerimeter;whiteSpace=wrap;html=1;container=1;collapsible=0;recursiveResize=0;outlineConnect=0;strokeColor=#000000;fillColor=none;" parent="YWq5WGcZyo5m1Z9Z-Msd-1" vertex="1"><mxGeometry x="420" y="120" width="100" height="980" as="geometry"/></mxCell><mxCell id="kSrvGeqpeQmIJn7a0G-C-0" value="Médico" style="shape=umlActor;verticalLabelPosition=bottom;verticalAlign=top;html=1;" parent="YWq5WGcZyo5m1Z9Z-Msd-1" vertex="1"><mxGeometry x="144" y="71" width="30" height="60" as="geometry"/></mxCell><mxCell id="kSrvGeqpeQmIJn7a0G-C-1" value="" style="endArrow=none;dashed=1;html=1;" parent="YWq5WGcZyo5m1Z9Z-Msd-1" edge="1"><mxGeometry width="50" height="50" relative="1" as="geometry"><mxPoint x="159" y="1100" as="sourcePoint"/><mxPoint x="159" y="160" as="targetPoint"/><Array as="points"/></mxGeometry></mxCell><mxCell id="ZvHS6ds8D4FM7uIXu75d-0" value="" style="verticalAlign=bottom;endArrow=open;dashed=1;endSize=8;shadow=0;strokeWidth=1;exitX=1;exitY=1;exitDx=0;exitDy=0;" parent="YWq5WGcZyo5m1Z9Z-Msd-1" source="SYRSoSL9QByiTBSLftoJ-2" edge="1"><mxGeometry relative="1" as="geometry"><mxPoint x="160" y="260" as="targetPoint"/><mxPoint x="300" y="230" as="sourcePoint"/></mxGeometry></mxCell><mxCell id="SYRSoSL9QByiTBSLftoJ-0" value="chamarUtente()" style="verticalAlign=bottom;endArrow=block;shadow=0;strokeWidth=1;entryX=0;entryY=1;entryDx=0;entryDy=0;" parent="YWq5WGcZyo5m1Z9Z-Msd-1" target="SYRSoSL9QByiTBSLftoJ-2" edge="1"><mxGeometry relative="1" as="geometry"><mxPoint x="159" y="190" as="sourcePoint"/><mxPoint x="300" y="200" as="targetPoint"/><Array as="points"><mxPoint x="240" y="190"/></Array></mxGeometry></mxCell><mxCell id="SYRSoSL9QByiTBSLftoJ-1" value="enviarInformaçãoConsulta()" style="verticalAlign=bottom;endArrow=block;shadow=0;strokeWidth=1;entryX=0;entryY=1;entryDx=0;entryDy=0;" parent="YWq5WGcZyo5m1Z9Z-Msd-1" target="dW2a_u_GZvs1QqgM_uEt-1" edge="1"><mxGeometry relative="1" as="geometry"><mxPoint x="315" y="210" as="sourcePoint"/><mxPoint x="471" y="210" as="targetPoint"/><mxPoint as="offset"/></mxGeometry></mxCell><mxCell id="dW2a_u_GZvs1QqgM_uEt-1" value="" style="rounded=0;whiteSpace=wrap;html=1;direction=south;" parent="YWq5WGcZyo5m1Z9Z-Msd-1" vertex="1"><mxGeometry x="465" y="210" width="10" height="20" as="geometry"/></mxCell><mxCell id="XHDiFYzcqxBf6EsyGbic-5" value="«create»" style="endArrow=classic;html=1;strokeWidth=1;" parent="YWq5WGcZyo5m1Z9Z-Msd-1" target="YWq5WGcZyo5m1Z9Z-Msd-3" edge="1"><mxGeometry width="50" height="50" relative="1" as="geometry"><mxPoint x="160" y="170" as="sourcePoint"/><mxPoint x="300" y="180" as="targetPoint"/></mxGeometry></mxCell><mxCell id="XHDiFYzcqxBf6EsyGbic-6" value="" style="verticalAlign=bottom;endArrow=open;dashed=1;endSize=8;shadow=0;strokeWidth=1;exitX=1;exitY=1;exitDx=0;exitDy=0;" parent="YWq5WGcZyo5m1Z9Z-Msd-1" source="dW2a_u_GZvs1QqgM_uEt-1" edge="1"><mxGeometry x="0.4483" y="-10" relative="1" as="geometry"><mxPoint x="316" y="230" as="targetPoint"/><mxPoint x="464.9999999999999" y="220" as="sourcePoint"/><mxPoint as="offset"/></mxGeometry></mxCell><mxCell id="XHDiFYzcqxBf6EsyGbic-9" value="«create»" style="endArrow=classic;html=1;strokeWidth=1;fillColor=#f8cecc;exitX=0;exitY=0;exitDx=0;exitDy=0;" parent="YWq5WGcZyo5m1Z9Z-Msd-1" source="SYRSoSL9QByiTBSLftoJ-2" target="YWq5WGcZyo5m1Z9Z-Msd-4" edge="1"><mxGeometry x="0.0031" y="10" width="50" height="50" relative="1" as="geometry"><mxPoint x="309.9999999999999" y="190" as="sourcePoint"/><mxPoint x="459.5" y="190" as="targetPoint"/><mxPoint as="offset"/></mxGeometry></mxCell><mxCell id="XHDiFYzcqxBf6EsyGbic-36" value="[utente responde à chamada]" style="text" parent="YWq5WGcZyo5m1Z9Z-Msd-1" vertex="1"><mxGeometry x="90" y="310" width="250" height="20" as="geometry"/></mxCell><mxCell id="XHDiFYzcqxBf6EsyGbic-48" value="" style="verticalAlign=bottom;endArrow=open;dashed=1;endSize=8;shadow=0;strokeWidth=1;exitX=1;exitY=1;exitDx=0;exitDy=0;" parent="YWq5WGcZyo5m1Z9Z-Msd-1" source="XHDiFYzcqxBf6EsyGbic-49" edge="1"><mxGeometry relative="1" as="geometry"><mxPoint x="160" y="800" as="targetPoint"/><mxPoint x="312.9999999999998" y="789.9977958060721" as="sourcePoint"/></mxGeometry></mxCell><mxCell id="eqoXr3fQrSw58jxvnbBV-19" value="[utente não responde à chamada]" style="text" parent="YWq5WGcZyo5m1Z9Z-Msd-1" vertex="1"><mxGeometry x="90" y="1000" width="250" height="20" as="geometry"/></mxCell><mxCell id="eqoXr3fQrSw58jxvnbBV-21" value="" style="endArrow=block;endFill=1;endSize=6;html=1;entryX=0;entryY=1;entryDx=0;entryDy=0;" parent="YWq5WGcZyo5m1Z9Z-Msd-1" edge="1"><mxGeometry width="100" relative="1" as="geometry"><mxPoint x="160" y="1039.9968521018432" as="sourcePoint"/><mxPoint x="305" y="1039.9968521018432" as="targetPoint"/></mxGeometry></mxCell><mxCell id="eqoXr3fQrSw58jxvnbBV-22" value="registarFaltaComparência()" style="edgeLabel;html=1;align=center;verticalAlign=middle;resizable=0;points=[];" parent="eqoXr3fQrSw58jxvnbBV-21" vertex="1" connectable="0"><mxGeometry x="0.7124" relative="1" as="geometry"><mxPoint x="-53.78" y="-10" as="offset"/></mxGeometry></mxCell><mxCell id="eqoXr3fQrSw58jxvnbBV-23" value="" style="rounded=0;whiteSpace=wrap;html=1;direction=south;" parent="YWq5WGcZyo5m1Z9Z-Msd-1" vertex="1"><mxGeometry x="305" y="1040" width="10" height="15" as="geometry"/></mxCell><mxCell id="eqoXr3fQrSw58jxvnbBV-24" value="" style="verticalAlign=bottom;endArrow=open;dashed=1;endSize=8;shadow=0;strokeWidth=1;exitX=1;exitY=1;exitDx=0;exitDy=0;" parent="YWq5WGcZyo5m1Z9Z-Msd-1" edge="1"><mxGeometry relative="1" as="geometry"><mxPoint x="160" y="1055" as="targetPoint"/><mxPoint x="305" y="1055" as="sourcePoint"/></mxGeometry></mxCell><mxCell id="eqoXr3fQrSw58jxvnbBV-29" value="&lt;span style=&quot;font-size: 11px ; background-color: rgb(255 , 255 , 255)&quot;&gt;registaHoraInicioConsulta()&lt;/span&gt;" style="text;html=1;align=center;verticalAlign=middle;resizable=0;points=[];autosize=1;" parent="YWq5WGcZyo5m1Z9Z-Msd-1" vertex="1"><mxGeometry x="326" y="237" width="150" height="20" as="geometry"/></mxCell><mxCell id="eqoXr3fQrSw58jxvnbBV-47" value="" style="rounded=0;whiteSpace=wrap;html=1;strokeColor=#000000;fillColor=#ffffff;" parent="YWq5WGcZyo5m1Z9Z-Msd-1" vertex="1"><mxGeometry x="310" y="774" width="10" height="20" as="geometry"/></mxCell><mxCell id="eqoXr3fQrSw58jxvnbBV-43" value="" style="endArrow=block;endFill=1;endSize=6;html=1;exitX=1;exitY=0.25;exitDx=0;exitDy=0;entryX=1;entryY=0.75;entryDx=0;entryDy=0;" parent="YWq5WGcZyo5m1Z9Z-Msd-1" source="eqoXr3fQrSw58jxvnbBV-47" target="eqoXr3fQrSw58jxvnbBV-47" edge="1"><mxGeometry width="100" relative="1" as="geometry"><mxPoint x="320" y="726.4850968703428" as="sourcePoint"/><mxPoint x="320" y="734.6803278688525" as="targetPoint"/><Array as="points"><mxPoint x="340" y="779"/></Array></mxGeometry></mxCell><mxCell id="zkmenCaRRKgl-VBa8iPN-0" value="Diagrama de Sequência - Gestão Consulta" style="rounded=0;whiteSpace=wrap;html=1;fontColor=#0000CC;" parent="YWq5WGcZyo5m1Z9Z-Msd-1" vertex="1"><mxGeometry x="200" y="20" width="380" height="30" as="geometry"/></mxCell></root></mxGraphModel></diagram></mxfile>